<?xml version="1.0" encoding="UTF-8" standalone="no"?>
<svg
   xmlns:dc="http://purl.org/dc/elements/1.1/"
   xmlns:cc="http://creativecommons.org/ns#"
   xmlns:rdf="http://www.w3.org/1999/02/22-rdf-syntax-ns#"
   xmlns:svg="http://www.w3.org/2000/svg"
   xmlns="http://www.w3.org/2000/svg"
   xmlns:sodipodi="http://sodipodi.sourceforge.net/DTD/sodipodi-0.dtd"
   xmlns:inkscape="http://www.inkscape.org/namespaces/inkscape"
   version="1.1"
   id="svg389"
   sodipodi:docname="Bimodal_density.svg"
   inkscape:version="0.92.2 5c3e80d, 2017-08-06">
  <metadata
     id="metadata393">
    <rdf:RDF>
      <cc:Work
         rdf:about="">
        <dc:format>image/svg+xml</dc:format>
        <dc:type
           rdf:resource="http://purl.org/dc/dcmitype/StillImage" />
      </cc:Work>
    </rdf:RDF>
  </metadata>
  <sodipodi:namedview
     pagecolor="#ffffff"
     bordercolor="#666666"
     borderopacity="1"
     objecttolerance="10"
     gridtolerance="10"
     guidetolerance="10"
     inkscape:pageopacity="0"
     inkscape:pageshadow="2"
     inkscape:window-width="1614"
     inkscape:window-height="918"
     id="namedview391"
     showgrid="false"
     inkscape:zoom="3.8961584"
     inkscape:cx="57.826895"
     inkscape:cy="85.996225"
     inkscape:window-x="0"
     inkscape:window-y="27"
     inkscape:window-maximized="0"
     inkscape:current-layer="g380" />
  <g
     transform="translate(-215.000000, -5.000000)"
     id="g380">
    <g
       transform="matrix(0.27470019,0,0,0.27470019,156.17808,3.699029)"
       clip-path="url(#cp1)"
       id="g7">
      <clipPath
         id="cp1">
        <polygon
           points="215,227 574,227 574,5 215,5 "
           id="polygon2" />
      </clipPath>
      <polyline
         points="222.5,222.226 222.606,222.226 222.711,222.225 222.922,222.224 223.345,222.222 224.189,222.217 224.295,222.217 224.4,222.216 224.611,222.215 225.034,222.213 225.878,222.207 225.984,222.207 226.09,222.206 226.301,222.205 226.723,222.202 227.568,222.196 229.257,222.183 229.371,222.182 229.486,222.181 229.715,222.179 230.172,222.174 231.088,222.166 231.202,222.165 231.317,222.164 231.546,222.161 232.004,222.156 232.919,222.146 233.034,222.145 233.148,222.144 233.377,222.141 233.835,222.136 234.751,222.124 236.582,222.098 236.689,222.096 236.796,222.094 237.009,222.091 237.437,222.084 238.292,222.07 238.399,222.068 238.505,222.066 238.719,222.062 239.147,222.054 240.002,222.038 240.109,222.036 240.215,222.033 240.429,222.029 240.857,222.02 241.712,222.001 243.421,221.96 243.526,221.957 243.631,221.954 243.841,221.949 244.26,221.937 245.098,221.913 245.203,221.91 245.307,221.907 245.517,221.901 245.936,221.888 246.774,221.861 246.879,221.857 246.984,221.854 247.193,221.847 247.612,221.832 248.451,221.802 250.127,221.735 250.241,221.73 250.354,221.725 250.582,221.715 251.036,221.695 251.945,221.653 252.059,221.647 252.173,221.642 252.4,221.63 252.855,221.607 253.764,221.559 253.878,221.553 253.991,221.547 254.219,221.534 254.673,221.508 255.582,221.453 257.401,221.334 257.507,221.326 257.613,221.319 257.825,221.304 258.249,221.273 259.098,221.208 260.795,221.068 260.901,221.058 261.007,221.049 261.219,221.03 261.644,220.992 262.492,220.911 264.189,220.736 264.304,220.724 264.419,220.711 264.649,220.686 265.109,220.634 266.028,220.525 267.868,220.288 267.983,220.272 268.097,220.256 268.327,220.224 268.787,220.159 269.707,220.023 271.546,219.728 271.659,219.708 271.772,219.689 271.997,219.65 272.449,219.57 273.352,219.405 275.157,219.047 275.27,219.024 275.383,219 275.609,218.952 276.06,218.854 276.963,218.651 278.769,218.214 278.874,218.187 278.979,218.16 279.19,218.106 279.611,217.995 280.453,217.766 282.137,217.276 282.242,217.244 282.348,217.212 282.558,217.147 282.979,217.015 283.821,216.741 285.506,216.159 285.62,216.118 285.734,216.076 285.962,215.993 286.419,215.822 287.332,215.47 289.158,214.717 289.273,214.668 289.387,214.618 289.615,214.518 290.072,214.315 290.985,213.896 292.811,213.002 292.918,212.947 293.024,212.893 293.237,212.782 293.664,212.559 294.516,212.098 296.221,211.124 296.328,211.061 296.434,210.997 296.648,210.869 297.074,210.609 297.926,210.076 299.631,208.95 299.736,208.879 299.84,208.807 300.049,208.662 300.467,208.369 301.303,207.768 302.974,206.505 303.079,206.423 303.183,206.341 303.392,206.176 303.81,205.842 304.646,205.157 306.317,203.723 306.431,203.622 306.544,203.521 306.771,203.318 307.224,202.907 308.131,202.064 309.944,200.297 313.571,196.423 313.677,196.303 313.783,196.183 313.995,195.941 314.418,195.453 315.264,194.457 316.956,192.387 320.34,187.935 320.455,187.776 320.57,187.618 320.799,187.299 321.257,186.656 322.175,185.346 324.009,182.634 327.677,176.847 334.881,164.153 341.598,150.96 348.884,135.666 355.685,121.096 363.053,105.859 363.166,105.635 363.279,105.411 363.506,104.965 363.958,104.077 364.862,102.32 366.671,98.8915 370.288,92.4275 370.394,92.2479 370.499,92.0688 370.71,91.7121 371.132,91.0054 371.975,89.6187 373.663,86.9574 373.768,86.7962 373.874,86.6356 374.085,86.3164 374.506,85.6855 375.35,84.4547 377.037,82.1215 377.152,81.9698 377.266,81.8189 377.495,81.5196 377.952,80.9311 378.867,79.7949 378.981,79.6568 379.095,79.5196 379.324,79.2477 379.781,78.7145 380.696,77.6913 380.81,77.5675 380.925,77.4446 381.153,77.2016 381.611,76.7266 382.526,75.8216 384.355,74.1957 384.462,74.1085 384.568,74.0222 384.782,73.8522 385.209,73.5225 386.063,72.9052 386.17,72.832 386.276,72.7597 386.49,72.6177 386.917,72.3444 387.771,71.8407 387.878,71.7818 387.985,71.7238 388.198,71.6105 388.625,71.3948 388.732,71.3432 388.839,71.2924 389.052,71.1937 389.479,71.0072 389.586,70.9629 389.693,70.9195 389.906,70.8354 390.333,70.6783 390.44,70.6414 390.547,70.6053 390.76,70.536 391.187,70.4086 391.292,70.3796 391.396,70.3515 391.606,70.298 391.71,70.2726 391.815,70.2481 392.024,70.2018 392.129,70.18 392.234,70.1591 392.443,70.1199 392.548,70.1017 392.652,70.0844 392.862,70.0524 392.966,70.0378 393.071,70.0241 393.176,70.0112 393.28,69.9993 393.385,69.9883 393.49,69.9781 393.594,69.9689 393.699,69.9606 393.804,69.9531 393.908,69.9466 394.013,69.941 394.117,69.9362 394.222,69.9324 394.327,69.9295 394.431,69.9275 394.536,69.9263 394.641,69.9261 394.745,69.9268 394.85,69.9284 394.955,69.9309 395.059,69.9342 395.164,69.9385 395.269,69.9437 395.373,69.9498 395.478,69.9568 395.583,69.9647 395.687,69.9735 395.792,69.9831 395.897,69.9937 396.001,70.0052 396.211,70.0309 396.315,70.0451 396.42,70.0602 396.629,70.093 396.734,70.1108 396.839,70.1295 397.048,70.1696 397.153,70.1909 397.257,70.2132 397.467,70.2604 397.885,70.3656 397.999,70.3966 398.112,70.4287 398.339,70.4959 398.793,70.643 398.907,70.6824 399.02,70.7228 399.248,70.8068 399.702,70.9872 399.815,71.035 399.929,71.0837 400.156,71.1843 400.61,71.398 401.518,71.8746 401.632,71.9388 401.745,72.004 401.972,72.1375 402.427,72.4166 403.335,73.0231 403.448,73.1034 403.562,73.1847 403.789,73.3503 404.243,73.6934 405.151,74.4265 405.257,74.5161 405.363,74.6065 405.575,74.7899 405.999,75.1666 406.847,75.9598 408.542,77.7017 408.648,77.8173 408.754,77.9337 408.966,78.1688 409.39,78.6484 410.237,79.6444 411.932,81.7793 412.047,81.9306 412.162,82.0828 412.392,82.3896 412.851,83.0131 413.77,84.2991 415.607,87.0205 419.282,93.0124 419.394,93.2068 419.507,93.4019 419.733,93.7938 420.184,94.5844 421.085,96.1927 422.889,99.5107 426.497,106.499 433.226,120.421 440.525,136.051 447.337,150.36 447.441,150.574 447.546,150.787 447.755,151.213 448.172,152.063 449.007,153.751 450.676,157.08 454.016,163.517 454.129,163.729 454.242,163.941 454.468,164.363 454.921,165.202 455.827,166.855 455.94,167.059 456.054,167.263 456.28,167.667 456.733,168.469 457.639,170.032 457.752,170.223 457.865,170.413 458.092,170.79 458.545,171.528 459.451,172.933 459.564,173.1 459.677,173.266 459.904,173.59 460.356,174.208 460.47,174.356 460.583,174.501 460.809,174.782 461.262,175.301 461.368,175.414 461.474,175.523 461.685,175.729 461.791,175.826 461.896,175.919 462.108,176.091 462.213,176.17 462.319,176.244 462.424,176.313 462.53,176.377 462.636,176.435 462.741,176.488 462.847,176.534 462.953,176.575 463.058,176.609 463.164,176.636 463.27,176.657 463.375,176.671 463.481,176.677 463.587,176.676 463.692,176.666 463.798,176.649 463.904,176.623 464.009,176.589 464.115,176.545 464.22,176.493 464.326,176.431 464.432,176.358 464.537,176.276 464.643,176.183 464.749,176.08 464.854,175.965 464.96,175.839 465.066,175.701 465.171,175.551 465.277,175.388 465.488,175.023 465.594,174.821 465.699,174.604 465.805,174.374 465.911,174.128 466.016,173.868 466.122,173.592 466.333,172.991 466.439,172.667 466.545,172.325 466.756,171.589 466.862,171.194 466.967,170.78 467.179,169.895 467.284,169.423 467.39,168.932 467.601,167.886 468.024,165.538 468.138,164.84 468.253,164.115 468.482,162.583 468.596,161.774 468.711,160.937 468.94,159.176 469.054,158.252 469.169,157.297 469.398,155.297 469.856,150.929 469.971,149.759 470.085,148.558 470.314,146.06 470.772,140.69 470.887,139.269 471.001,137.817 471.23,134.823 471.689,128.475 471.803,126.816 471.918,125.129 472.147,121.674 472.605,114.457 473.521,98.9861 475.353,66.0138 475.46,64.1022 475.567,62.2006 475.781,58.4335 476.209,51.0843 476.316,49.2942 476.423,47.5259 476.637,44.0608 477.064,37.4573 477.171,35.8829 477.278,34.3421 477.492,31.3663 477.599,29.9341 477.706,28.5408 477.92,25.8762 478.027,24.6074 478.134,23.3826 478.348,21.0696 478.455,19.9836 478.562,18.9462 478.776,17.021 478.882,16.1352 478.989,15.3017 479.096,14.5216 479.203,13.7955 479.31,13.1243 479.417,12.5087 479.524,11.9494 479.631,11.4469 479.738,11.0019 479.845,10.6149 479.952,10.2863 480.059,10.0165 480.166,9.80597 480.273,9.65491 480.38,9.56359 480.487,9.53219 480.594,9.56083 480.7,9.6496 480.807,9.7985 480.914,10.0075 481.021,10.2765 481.128,10.6053 481.235,10.9937 481.342,11.4415 481.449,11.9483 481.556,12.5137 481.663,13.1374 481.77,13.8187 481.877,14.5572 481.984,15.3523 482.198,17.1095 482.303,18.0509 482.407,19.0438 482.617,21.1813 482.722,22.3241 482.827,23.5151 483.036,26.0378 483.141,27.3675 483.246,28.7413 483.456,31.6169 483.875,37.8475 483.98,39.498 484.085,41.183 484.295,44.6516 484.714,51.9456 485.553,67.6533 485.658,69.6946 485.762,71.7485 485.972,75.889 486.392,84.2623 487.23,101.09 487.335,103.177 487.44,105.257 487.65,109.39 488.069,117.523 488.908,133.058 489.022,135.072 489.135,137.062 489.363,140.966 489.818,148.451 489.931,150.253 490.045,152.025 490.273,155.481 490.727,162.031 490.841,163.593 490.955,165.123 491.182,168.091 491.637,173.658 491.751,174.973 491.865,176.258 492.092,178.737 492.547,183.339 492.661,184.417 492.774,185.467 493.002,187.484 493.457,191.194 493.571,192.057 493.684,192.894 493.912,194.495 494.367,197.417 494.48,198.092 494.594,198.745 494.822,199.989 494.935,200.581 495.049,201.154 495.276,202.243 495.39,202.76 495.504,203.26 495.731,204.209 496.186,205.917 496.292,206.282 496.399,206.634 496.611,207.305 496.717,207.623 496.823,207.931 497.035,208.515 497.142,208.793 497.248,209.061 497.46,209.569 497.885,210.487 497.991,210.697 498.097,210.9 498.309,211.285 498.415,211.467 498.521,211.644 498.734,211.979 498.84,212.138 498.946,212.292 499.158,212.585 499.583,213.114 499.689,213.235 499.795,213.353 500.007,213.578 500.432,213.987 500.538,214.081 500.644,214.173 500.856,214.349 501.281,214.672 501.387,214.747 501.493,214.821 501.706,214.962 502.13,215.224 502.236,215.286 502.342,215.347 502.555,215.464 502.979,215.684 503.094,215.741 503.209,215.796 503.439,215.904 503.899,216.109 504.82,216.482 504.935,216.525 505.05,216.569 505.28,216.653 505.74,216.817 506.66,217.126 506.775,217.163 506.89,217.2 507.12,217.272 507.58,217.414 508.5,217.684 510.341,218.183 510.454,218.211 510.567,218.24 510.792,218.297 511.244,218.409 512.147,218.624 513.954,219.023 514.067,219.046 514.18,219.07 514.406,219.116 514.858,219.207 515.761,219.383 517.568,219.708 517.673,219.726 517.779,219.744 517.989,219.779 518.411,219.848 519.253,219.982 520.939,220.23 521.044,220.244 521.149,220.259 521.36,220.288 521.781,220.344 522.624,220.453 524.31,220.655 524.424,220.668 524.538,220.681 524.767,220.706 525.223,220.756 526.137,220.851 527.965,221.026 528.079,221.036 528.193,221.047 528.422,221.067 528.878,221.106 529.792,221.181 531.62,221.319 531.726,221.327 531.833,221.334 532.046,221.349 532.473,221.378 533.326,221.433 535.032,221.535 535.139,221.541 535.245,221.547 535.459,221.559 535.885,221.582 536.738,221.626 538.444,221.706 538.549,221.711 538.654,221.715 538.863,221.725 539.281,221.742 540.117,221.776 540.222,221.78 540.326,221.784 540.535,221.792 540.953,221.808 541.79,221.838 541.894,221.842 541.999,221.845 542.208,221.853 542.626,221.867 543.462,221.893 545.135,221.942 545.248,221.945 545.362,221.948 545.589,221.954 546.042,221.966 546.95,221.988 547.063,221.991 547.177,221.993 547.403,221.999 547.857,222.009 548.764,222.028 548.878,222.031 548.991,222.033 549.218,222.038 549.672,222.046 550.579,222.063 552.394,222.094 552.5,222.096 552.606,222.097 552.817,222.1 553.241,222.107 554.087,222.119 554.193,222.12 554.299,222.121 554.511,222.124 554.934,222.13 555.781,222.14 555.886,222.141 555.992,222.143 556.204,222.145 556.627,222.15 557.474,222.159 559.167,222.176 559.285,222.177 559.404,222.178 559.64,222.18 560.113,222.184 561.058,222.191 561.176,222.192 561.294,222.193 561.53,222.195 562.003,222.198 562.948,222.205 563.066,222.206 563.184,222.206 563.421,222.208 563.893,222.211 564.838,222.216 564.956,222.217 565.075,222.218 565.311,222.219 565.783,222.221 565.902,222.222 566.02,222.223 566.256,222.224 566.374,222.224 566.492,222.225 566.61,222.225 566.729,222.226 "
         id="polyline5"
         style="fill:none;stroke:#3f3d99;stroke-width:0.5px;stroke-opacity:1" />
    </g>
    <g
       transform="matrix(0.27470019,0,0,0.27470019,156.17808,3.699029)"
       clip-path="url(#cp2)"
       id="g14">
      <clipPath
         id="cp2">
        <polygon
           points="215,240 575,240 575,5 215,5 "
           id="polygon9" />
      </clipPath>
      <polyline
         points="222.5,222.277 222.5,218.277 "
         id="polyline12"
         style="fill:none;stroke:#000000;stroke-width:0.2px;stroke-opacity:1" />
    </g>
    <g
       transform="matrix(0.27470019,0,0,0.27470019,156.17808,3.699029)"
       clip-path="url(#cp5)"
       id="g35">
      <clipPath
         id="cp5">
        <polygon
           points="215,240 575,240 575,5 215,5 "
           id="polygon30" />
      </clipPath>
      <polyline
         points="239.711,222.277 239.711,219.877 "
         id="polyline33"
         style="fill:none;stroke:#000000;stroke-width:0.2px;stroke-opacity:1" />
    </g>
    <g
       transform="matrix(0.27470019,0,0,0.27470019,156.17808,3.699029)"
       clip-path="url(#cp6)"
       id="g42">
      <clipPath
         id="cp6">
        <polygon
           points="215,240 575,240 575,5 215,5 "
           id="polygon37" />
      </clipPath>
      <polyline
         points="256.923,222.277 256.923,219.877 "
         id="polyline40"
         style="fill:none;stroke:#000000;stroke-width:0.2px;stroke-opacity:1" />
    </g>
    <g
       transform="matrix(0.27470019,0,0,0.27470019,156.17808,3.699029)"
       clip-path="url(#cp7)"
       id="g49">
      <clipPath
         id="cp7">
        <polygon
           points="215,240 575,240 575,5 215,5 "
           id="polygon44" />
      </clipPath>
      <polyline
         points="274.134,222.277 274.134,219.877 "
         id="polyline47"
         style="fill:none;stroke:#000000;stroke-width:0.2px;stroke-opacity:1" />
    </g>
    <g
       transform="matrix(0.27470019,0,0,0.27470019,156.17808,3.699029)"
       clip-path="url(#cp8)"
       id="g56">
      <clipPath
         id="cp8">
        <polygon
           points="215,240 575,240 575,5 215,5 "
           id="polygon51" />
      </clipPath>
      <polyline
         points="291.346,222.277 291.346,219.877 "
         id="polyline54"
         style="fill:none;stroke:#000000;stroke-width:0.2px;stroke-opacity:1" />
    </g>
    <g
       transform="matrix(0.27470019,0,0,0.27470019,156.17808,3.699029)"
       clip-path="url(#cp9)"
       id="g63">
      <clipPath
         id="cp9">
        <polygon
           points="215,240 575,240 575,5 215,5 "
           id="polygon58" />
      </clipPath>
      <polyline
         points="308.557,222.277 308.557,218.277 "
         id="polyline61"
         style="fill:none;stroke:#000000;stroke-width:0.2px;stroke-opacity:1" />
    </g>
    <g
       transform="matrix(0.27470019,0,0,0.27470019,156.17808,3.699029)"
       clip-path="url(#cp12)"
       id="g84">
      <clipPath
         id="cp12">
        <polygon
           points="215,240 575,240 575,5 215,5 "
           id="polygon79" />
      </clipPath>
      <polyline
         points="325.769,222.277 325.769,219.877 "
         id="polyline82"
         style="fill:none;stroke:#000000;stroke-width:0.2px;stroke-opacity:1" />
    </g>
    <g
       transform="matrix(0.27470019,0,0,0.27470019,156.17808,3.699029)"
       clip-path="url(#cp13)"
       id="g91">
      <clipPath
         id="cp13">
        <polygon
           points="215,240 575,240 575,5 215,5 "
           id="polygon86" />
      </clipPath>
      <polyline
         points="342.98,222.277 342.98,219.877 "
         id="polyline89"
         style="fill:none;stroke:#000000;stroke-width:0.2px;stroke-opacity:1" />
    </g>
    <g
       transform="matrix(0.27470019,0,0,0.27470019,156.17808,3.699029)"
       clip-path="url(#cp14)"
       id="g98">
      <clipPath
         id="cp14">
        <polygon
           points="215,240 575,240 575,5 215,5 "
           id="polygon93" />
      </clipPath>
      <polyline
         points="360.191,222.277 360.191,219.877 "
         id="polyline96"
         style="fill:none;stroke:#000000;stroke-width:0.2px;stroke-opacity:1" />
    </g>
    <g
       transform="matrix(0.27470019,0,0,0.27470019,156.17808,3.699029)"
       clip-path="url(#cp15)"
       id="g105">
      <clipPath
         id="cp15">
        <polygon
           points="215,240 575,240 575,5 215,5 "
           id="polygon100" />
      </clipPath>
      <polyline
         points="377.403,222.277 377.403,219.877 "
         id="polyline103"
         style="fill:none;stroke:#000000;stroke-width:0.2px;stroke-opacity:1" />
    </g>
    <g
       transform="matrix(0.27470019,0,0,0.27470019,156.17808,3.699029)"
       clip-path="url(#cp16)"
       id="g112">
      <clipPath
         id="cp16">
        <polygon
           points="215,240 575,240 575,5 215,5 "
           id="polygon107" />
      </clipPath>
      <polyline
         points="394.614,222.277 394.614,218.277 "
         id="polyline110"
         style="fill:none;stroke:#000000;stroke-width:0.2px;stroke-opacity:1" />
    </g>
    <g
       transform="matrix(0.27470019,0,0,0.27470019,156.17808,3.699029)"
       clip-path="url(#cp17)"
       id="g119">
      <clipPath
         id="cp17">
        <polygon
           points="215,240 575,240 575,5 215,5 "
           id="polygon114" />
      </clipPath>
      <polyline
         points="411.826,222.277 411.826,219.877 "
         id="polyline117"
         style="fill:none;stroke:#000000;stroke-width:0.2px;stroke-opacity:1" />
    </g>
    <g
       transform="matrix(0.27470019,0,0,0.27470019,156.17808,3.699029)"
       clip-path="url(#cp18)"
       id="g126">
      <clipPath
         id="cp18">
        <polygon
           points="215,240 575,240 575,5 215,5 "
           id="polygon121" />
      </clipPath>
      <polyline
         points="429.037,222.277 429.037,219.877 "
         id="polyline124"
         style="fill:none;stroke:#000000;stroke-width:0.2px;stroke-opacity:1" />
    </g>
    <g
       transform="matrix(0.27470019,0,0,0.27470019,156.17808,3.699029)"
       clip-path="url(#cp19)"
       id="g133">
      <clipPath
         id="cp19">
        <polygon
           points="215,240 575,240 575,5 215,5 "
           id="polygon128" />
      </clipPath>
      <polyline
         points="446.249,222.277 446.249,219.877 "
         id="polyline131"
         style="fill:none;stroke:#000000;stroke-width:0.2px;stroke-opacity:1" />
    </g>
    <g
       transform="matrix(0.27470019,0,0,0.27470019,156.17808,3.699029)"
       clip-path="url(#cp20)"
       id="g140">
      <clipPath
         id="cp20">
        <polygon
           points="215,240 575,240 575,5 215,5 "
           id="polygon135" />
      </clipPath>
      <polyline
         points="463.46,222.277 463.46,219.877 "
         id="polyline138"
         style="fill:none;stroke:#000000;stroke-width:0.2px;stroke-opacity:1" />
    </g>
    <g
       transform="matrix(0.27470019,0,0,0.27470019,156.17808,3.699029)"
       clip-path="url(#cp21)"
       id="g147">
      <clipPath
         id="cp21">
        <polygon
           points="215,240 575,240 575,5 215,5 "
           id="polygon142" />
      </clipPath>
      <polyline
         points="480.671,222.277 480.671,218.277 "
         id="polyline145"
         style="fill:none;stroke:#000000;stroke-width:0.2px;stroke-opacity:1" />
    </g>
    <g
       transform="matrix(0.27470019,0,0,0.27470019,156.17808,3.699029)"
       clip-path="url(#cp23)"
       id="g161">
      <clipPath
         id="cp23">
        <polygon
           points="215,240 575,240 575,5 215,5 "
           id="polygon156" />
      </clipPath>
      <polyline
         points="497.883,222.277 497.883,219.877 "
         id="polyline159"
         style="fill:none;stroke:#000000;stroke-width:0.2px;stroke-opacity:1" />
    </g>
    <g
       transform="matrix(0.27470019,0,0,0.27470019,156.17808,3.699029)"
       clip-path="url(#cp24)"
       id="g168">
      <clipPath
         id="cp24">
        <polygon
           points="215,240 575,240 575,5 215,5 "
           id="polygon163" />
      </clipPath>
      <polyline
         points="515.094,222.277 515.094,219.877 "
         id="polyline166"
         style="fill:none;stroke:#000000;stroke-width:0.2px;stroke-opacity:1" />
    </g>
    <g
       transform="matrix(0.27470019,0,0,0.27470019,156.17808,3.699029)"
       clip-path="url(#cp25)"
       id="g175">
      <clipPath
         id="cp25">
        <polygon
           points="215,240 575,240 575,5 215,5 "
           id="polygon170" />
      </clipPath>
      <polyline
         points="532.306,222.277 532.306,219.877 "
         id="polyline173"
         style="fill:none;stroke:#000000;stroke-width:0.2px;stroke-opacity:1" />
    </g>
    <g
       transform="matrix(0.27470019,0,0,0.27470019,156.17808,3.699029)"
       clip-path="url(#cp26)"
       id="g182">
      <clipPath
         id="cp26">
        <polygon
           points="215,240 575,240 575,5 215,5 "
           id="polygon177" />
      </clipPath>
      <polyline
         points="549.517,222.277 549.517,219.877 "
         id="polyline180"
         style="fill:none;stroke:#000000;stroke-width:0.2px;stroke-opacity:1" />
    </g>
    <g
       transform="matrix(0.27470019,0,0,0.27470019,156.17808,3.699029)"
       clip-path="url(#cp27)"
       id="g189">
      <clipPath
         id="cp27">
        <polygon
           points="215,240 575,240 575,5 215,5 "
           id="polygon184" />
      </clipPath>
      <polyline
         points="566.729,222.277 566.729,218.277 "
         id="polyline187"
         style="fill:none;stroke:#000000;stroke-width:0.2px;stroke-opacity:1" />
    </g>
    <g
       transform="matrix(0.27470019,0,0,0.27470019,156.17808,3.699029)"
       clip-path="url(#cp29)"
       id="g203">
      <clipPath
         id="cp29">
        <polygon
           points="215,240 575,240 575,5 215,5 "
           id="polygon198" />
      </clipPath>
      <polyline
         points="215.329,222.277 573.9,222.277 "
         id="polyline201"
         style="fill:none;stroke:#000000;stroke-width:0.2px;stroke-opacity:1" />
    </g>
    <g
       transform="matrix(0.27470019,0,0,0.27470019,156.17808,3.699029)"
       clip-path="url(#cp30)"
       id="g210">
      <clipPath
         id="cp30">
        <polygon
           points="215,240 575,240 575,5 215,5 "
           id="polygon205" />
      </clipPath>
      <polyline
         points="394.614,222.277 398.614,222.277 "
         id="polyline208"
         style="fill:none;stroke:#000000;stroke-width:0.2px;stroke-opacity:1" />
    </g>
    <g
       transform="matrix(0.27470019,0,0,0.27470019,156.17808,3.699029)"
       clip-path="url(#cp31)"
       id="g217">
      <clipPath
         id="cp31">
        <polygon
           points="215,240 575,240 575,5 215,5 "
           id="polygon212" />
      </clipPath>
      <polyline
         points="394.614,211.045 397.014,211.045 "
         id="polyline215"
         style="fill:none;stroke:#000000;stroke-width:0.2px;stroke-opacity:1" />
    </g>
    <g
       transform="matrix(0.27470019,0,0,0.27470019,156.17808,3.699029)"
       clip-path="url(#cp32)"
       id="g224">
      <clipPath
         id="cp32">
        <polygon
           points="215,240 575,240 575,5 215,5 "
           id="polygon219" />
      </clipPath>
      <polyline
         points="394.614,199.813 397.014,199.813 "
         id="polyline222"
         style="fill:none;stroke:#000000;stroke-width:0.2px;stroke-opacity:1" />
    </g>
    <g
       transform="matrix(0.27470019,0,0,0.27470019,156.17808,3.699029)"
       clip-path="url(#cp33)"
       id="g231">
      <clipPath
         id="cp33">
        <polygon
           points="215,240 575,240 575,5 215,5 "
           id="polygon226" />
      </clipPath>
      <polyline
         points="394.614,188.581 397.014,188.581 "
         id="polyline229"
         style="fill:none;stroke:#000000;stroke-width:0.2px;stroke-opacity:1" />
    </g>
    <g
       transform="matrix(0.27470019,0,0,0.27470019,156.17808,3.699029)"
       clip-path="url(#cp34)"
       id="g238">
      <clipPath
         id="cp34">
        <polygon
           points="215,240 575,240 575,5 215,5 "
           id="polygon233" />
      </clipPath>
      <polyline
         points="394.614,177.349 398.614,177.349 "
         id="polyline236"
         style="fill:none;stroke:#000000;stroke-width:0.2px;stroke-opacity:1" />
    </g>
    <g
       transform="matrix(0.27470019,0,0,0.27470019,156.17808,3.699029)"
       clip-path="url(#cp36)"
       id="g252">
      <clipPath
         id="cp36">
        <polygon
           points="215,240 575,240 575,5 215,5 "
           id="polygon247" />
      </clipPath>
      <polyline
         points="394.614,166.117 397.014,166.117 "
         id="polyline250"
         style="fill:none;stroke:#000000;stroke-width:0.2px;stroke-opacity:1" />
    </g>
    <g
       transform="matrix(0.27470019,0,0,0.27470019,156.17808,3.699029)"
       clip-path="url(#cp37)"
       id="g259">
      <clipPath
         id="cp37">
        <polygon
           points="215,240 575,240 575,5 215,5 "
           id="polygon254" />
      </clipPath>
      <polyline
         points="394.614,154.885 397.014,154.885 "
         id="polyline257"
         style="fill:none;stroke:#000000;stroke-width:0.2px;stroke-opacity:1" />
    </g>
    <g
       transform="matrix(0.27470019,0,0,0.27470019,156.17808,3.699029)"
       clip-path="url(#cp38)"
       id="g266">
      <clipPath
         id="cp38">
        <polygon
           points="215,240 575,240 575,5 215,5 "
           id="polygon261" />
      </clipPath>
      <polyline
         points="394.614,143.653 397.014,143.653 "
         id="polyline264"
         style="fill:none;stroke:#000000;stroke-width:0.2px;stroke-opacity:1" />
    </g>
    <g
       transform="matrix(0.27470019,0,0,0.27470019,156.17808,3.699029)"
       clip-path="url(#cp39)"
       id="g273">
      <clipPath
         id="cp39">
        <polygon
           points="215,240 575,240 575,5 215,5 "
           id="polygon268" />
      </clipPath>
      <polyline
         points="394.614,132.421 398.614,132.421 "
         id="polyline271"
         style="fill:none;stroke:#000000;stroke-width:0.2px;stroke-opacity:1" />
    </g>
    <g
       transform="matrix(0.27470019,0,0,0.27470019,156.17808,3.699029)"
       clip-path="url(#cp41)"
       id="g287">
      <clipPath
         id="cp41">
        <polygon
           points="215,240 575,240 575,5 215,5 "
           id="polygon282" />
      </clipPath>
      <polyline
         points="394.614,121.189 397.014,121.189 "
         id="polyline285"
         style="fill:none;stroke:#000000;stroke-width:0.2px;stroke-opacity:1" />
    </g>
    <g
       transform="matrix(0.27470019,0,0,0.27470019,156.17808,3.699029)"
       clip-path="url(#cp42)"
       id="g294">
      <clipPath
         id="cp42">
        <polygon
           points="215,240 575,240 575,5 215,5 "
           id="polygon289" />
      </clipPath>
      <polyline
         points="394.614,109.957 397.014,109.957 "
         id="polyline292"
         style="fill:none;stroke:#000000;stroke-width:0.2px;stroke-opacity:1" />
    </g>
    <g
       transform="matrix(0.27470019,0,0,0.27470019,156.17808,3.699029)"
       clip-path="url(#cp43)"
       id="g301">
      <clipPath
         id="cp43">
        <polygon
           points="215,240 575,240 575,5 215,5 "
           id="polygon296" />
      </clipPath>
      <polyline
         points="394.614,98.7253 397.014,98.7253 "
         id="polyline299"
         style="fill:none;stroke:#000000;stroke-width:0.2px;stroke-opacity:1" />
    </g>
    <g
       transform="matrix(0.27470019,0,0,0.27470019,156.17808,3.699029)"
       clip-path="url(#cp44)"
       id="g308">
      <clipPath
         id="cp44">
        <polygon
           points="215,240 575,240 575,5 215,5 "
           id="polygon303" />
      </clipPath>
      <polyline
         points="394.614,87.4933 398.614,87.4933 "
         id="polyline306"
         style="fill:none;stroke:#000000;stroke-width:0.2px;stroke-opacity:1" />
    </g>
    <g
       transform="matrix(0.27470019,0,0,0.27470019,156.17808,3.699029)"
       clip-path="url(#cp46)"
       id="g322">
      <clipPath
         id="cp46">
        <polygon
           points="215,240 575,240 575,5 215,5 "
           id="polygon317" />
      </clipPath>
      <polyline
         points="394.614,76.2613 397.014,76.2613 "
         id="polyline320"
         style="fill:none;stroke:#000000;stroke-width:0.2px;stroke-opacity:1" />
    </g>
    <g
       transform="matrix(0.27470019,0,0,0.27470019,156.17808,3.699029)"
       clip-path="url(#cp47)"
       id="g329">
      <clipPath
         id="cp47">
        <polygon
           points="215,240 575,240 575,5 215,5 "
           id="polygon324" />
      </clipPath>
      <polyline
         points="394.614,65.0294 397.014,65.0294 "
         id="polyline327"
         style="fill:none;stroke:#000000;stroke-width:0.2px;stroke-opacity:1" />
    </g>
    <g
       transform="matrix(0.27470019,0,0,0.27470019,156.17808,3.699029)"
       clip-path="url(#cp48)"
       id="g336">
      <clipPath
         id="cp48">
        <polygon
           points="215,240 575,240 575,5 215,5 "
           id="polygon331" />
      </clipPath>
      <polyline
         points="394.614,53.7974 397.014,53.7974 "
         id="polyline334"
         style="fill:none;stroke:#000000;stroke-width:0.2px;stroke-opacity:1" />
    </g>
    <g
       transform="matrix(0.27470019,0,0,0.27470019,156.17808,3.699029)"
       clip-path="url(#cp49)"
       id="g343">
      <clipPath
         id="cp49">
        <polygon
           points="215,240 575,240 575,5 215,5 "
           id="polygon338" />
      </clipPath>
      <polyline
         points="394.614,42.5654 398.614,42.5654 "
         id="polyline341"
         style="fill:none;stroke:#000000;stroke-width:0.2px;stroke-opacity:1" />
    </g>
    <g
       transform="matrix(0.27470019,0,0,0.27470019,156.17808,3.699029)"
       clip-path="url(#cp51)"
       id="g357">
      <clipPath
         id="cp51">
        <polygon
           points="215,240 575,240 575,5 215,5 "
           id="polygon352" />
      </clipPath>
      <polyline
         points="394.614,31.3334 397.014,31.3334 "
         id="polyline355"
         style="fill:none;stroke:#000000;stroke-width:0.2px;stroke-opacity:1" />
    </g>
    <g
       transform="matrix(0.27470019,0,0,0.27470019,156.17808,3.699029)"
       clip-path="url(#cp52)"
       id="g364">
      <clipPath
         id="cp52">
        <polygon
           points="215,240 575,240 575,5 215,5 "
           id="polygon359" />
      </clipPath>
      <polyline
         points="394.614,20.1014 397.014,20.1014 "
         id="polyline362"
         style="fill:none;stroke:#000000;stroke-width:0.2px;stroke-opacity:1" />
    </g>
    <g
       transform="matrix(0.27470019,0,0,0.27470019,156.17808,3.699029)"
       clip-path="url(#cp53)"
       id="g371">
      <clipPath
         id="cp53">
        <polygon
           points="215,240 575,240 575,5 215,5 "
           id="polygon366" />
      </clipPath>
      <polyline
         points="394.614,8.86944 397.014,8.86944 "
         id="polyline369"
         style="fill:none;stroke:#000000;stroke-width:0.2px;stroke-opacity:1" />
    </g>
    <g
       transform="matrix(0.27470019,0,0,0.27470019,156.17808,3.699029)"
       clip-path="url(#cp54)"
       id="g378">
      <clipPath
         id="cp54">
        <polygon
           points="215,240 575,240 575,5 215,5 "
           id="polygon373" />
      </clipPath>
      <polyline
         points="394.614,226.709 394.614,5.1 "
         id="polyline376"
         style="fill:none;stroke:#000000;stroke-width:0.2px;stroke-opacity:1" />
    </g>
  </g>
  <defs
     id="defs387">
    <font
       id="SVGTimesFont"
       horiz-adv-x="1024">
      <font-face
         font-family="SVGTimes"
         units-per-em="2048"
         font-weight="normal"
         id="font-face382" />
      <missing-glyph
         d="M128 0V1638H896V0H128ZM256 128H768V1510H256V128Z"
         id="missing-glyph384" />
    </font>
  </defs>
</svg>
