<?xml version="1.0" encoding="UTF-8" standalone="no"?>
<!-- Created with Inkscape (http://www.inkscape.org/) -->

<svg
   xmlns:dc="http://purl.org/dc/elements/1.1/"
   xmlns:cc="http://creativecommons.org/ns#"
   xmlns:rdf="http://www.w3.org/1999/02/22-rdf-syntax-ns#"
   xmlns:svg="http://www.w3.org/2000/svg"
   xmlns="http://www.w3.org/2000/svg"
   xmlns:sodipodi="http://sodipodi.sourceforge.net/DTD/sodipodi-0.dtd"
   xmlns:inkscape="http://www.inkscape.org/namespaces/inkscape"
   width="270"
   height="400"
   viewBox="0 0 71.437502 105.83334"
   version="1.1"
   id="svg8"
   inkscape:version="0.92.2 5c3e80d, 2017-08-06"
   sodipodi:docname="Two_indep_samples.svg"
   inkscape:export-filename="/home/francisco/MEOCloud/Classes/BP2017/classes/C1_assets/Two_indep_samples.png"
   inkscape:export-xdpi="119"
   inkscape:export-ydpi="119">
  <sodipodi:namedview
     id="base"
     pagecolor="#000000"
     bordercolor="#666666"
     borderopacity="1.0"
     inkscape:pageopacity="1"
     inkscape:pageshadow="2"
     inkscape:zoom="1.4"
     inkscape:cx="106.81392"
     inkscape:cy="204.03611"
     inkscape:document-units="mm"
     inkscape:current-layer="layer1"
     showgrid="false"
     units="px"
     width="800px"
     inkscape:window-width="1920"
     inkscape:window-height="1024"
     inkscape:window-x="0"
     inkscape:window-y="27"
     inkscape:window-maximized="1"
     height="400px"
     inkscape:measure-start="102.143,389.286"
     inkscape:measure-end="0,0" />
  <defs
     id="defs2">
    <marker
       inkscape:isstock="true"
       style="overflow:visible"
       id="marker1115"
       refX="0"
       refY="0"
       orient="auto"
       inkscape:stockid="Arrow2Lend">
      <path
         inkscape:connector-curvature="0"
         transform="matrix(-1.1,0,0,-1.1,-1.1,0)"
         d="M 8.7185878,4.0337352 -2.2072895,0.01601326 8.7185884,-4.0017078 c -1.7454984,2.3720609 -1.7354408,5.6174519 -6e-7,8.035443 z"
         style="fill:#ffffff;fill-opacity:1;fill-rule:evenodd;stroke:#ffffff;stroke-width:0.625;stroke-linejoin:round;stroke-opacity:1"
         id="path1113" />
    </marker>
    <marker
       inkscape:isstock="true"
       style="overflow:visible"
       id="Arrow2Lend"
       refX="0"
       refY="0"
       orient="auto"
       inkscape:stockid="Arrow2Lend">
      <path
         inkscape:connector-curvature="0"
         transform="matrix(-1.1,0,0,-1.1,-1.1,0)"
         d="M 8.7185878,4.0337352 -2.2072895,0.01601326 8.7185884,-4.0017078 c -1.7454984,2.3720609 -1.7354408,5.6174519 -6e-7,8.035443 z"
         style="fill:#ffffff;fill-opacity:1;fill-rule:evenodd;stroke:#ffffff;stroke-width:0.625;stroke-linejoin:round;stroke-opacity:1"
         id="path852" />
    </marker>
  </defs>
  <metadata
     id="metadata5">
    <rdf:RDF>
      <cc:Work
         rdf:about="">
        <dc:format>image/svg+xml</dc:format>
        <dc:type
           rdf:resource="http://purl.org/dc/dcmitype/StillImage" />
        <dc:title></dc:title>
      </cc:Work>
    </rdf:RDF>
  </metadata>
  <g
     transform="translate(0,-191.16667)"
     id="layer1"
     inkscape:groupmode="layer"
     inkscape:label="Layer 1">
    <g
       id="g953"
       transform="matrix(0.26458333,0,0,0.26458333,-656.4409,1.4384465)">
      <path
         id="path906"
         d="m 2687.396,972.04241 c -0.6479,-0.32137 -1.2079,-1.64773 -1.2333,-1.87243 0.3186,0.16815 0.092,0 0.8228,0.57634 0.026,-0.32686 -0.2394,-0.45559 -0.4433,-0.60065 -0.4626,-0.32883 -0.6609,-0.93103 -1.2217,-1.15606 -0.3472,-0.13942 0,-0.67662 0.9751,-0.0235 0.7841,0.5265 1.932,0.44822 2.4075,1.52708 0.3007,0.68231 2.0754,-0.71685 1.8272,0.59544 -0.1841,0.97308 0.4279,1.48339 0.9383,2.08558 v 0 c -0.027,-0.65128 -0.8561,-0.94539 -0.6717,-1.89585 0.1556,-0.80244 -0.3894,-1.23996 -1.163,-0.9865 -0.4674,0.15318 -0.7544,0.12305 -0.9418,-0.39491 -0.1125,-0.31076 -5.4947,-3.00568 -6.5467,-2.56966 -1.9401,0.80409 -1.5388,-1.35311 -1.716,-2.02106 -0.669,-2.52033 -3.2453,-1.41975 -4.5757,-2.30277 -4.9633,-3.29402 -2.1695,3.08002 -5.3121,0.86786 -2.2376,-1.57523 -3.6964,0.44855 -6.0935,-0.43123 -1.0999,-0.40378 -1.7065,-1.80213 -3.0014,-1.79922 -2.3577,0.005 -0.1166,-2.58252 -2.0596,-4.49489 -0.1874,-0.18453 -0.2057,-0.36704 -0.1728,-0.64528 0.2769,-2.34712 -1.8311,-1.38366 -2.6595,-2.51893 -0.8375,-1.14752 -3.2303,-1.67205 -3.2303,-1.67205 -0.2565,-0.6968 -0.9058,-1.29379 -0.8125,-2.05724 0.2489,-2.03907 -1.7237,-2.47125 -1.7396,-3.4723 -0.029,-1.84352 -2.5355,-4.16328 -3.1569,-4.17384 -1.4741,-0.0249 -2.4703,-0.80536 -3.3462,-1.9088 -2.7655,-3.48404 -6.3899,-1.53825 -5.1851,-4.92172 0.5952,-1.67138 -0.015,-4.57481 -1.8149,-4.40192 -0.8838,0.085 -2.5757,-1.00992 -3.1328,-2.29301 -2.5601,-5.89704 -3.1523,-4.66243 -4.7811,-5.52954 -1.0272,-0.54682 -2.3541,-0.69958 -2.7456,-2.1083 -0.1008,-0.36281 -0.4663,-0.5854 -0.7999,-0.77692 -2.3876,-1.37165 0.4039,-2.92623 -2.0799,-5.02551 -2.9191,-2.46759 -3.4284,-1.62723 -4.3409,-4.06427 -0.5474,-1.4618 -1.506,-0.90118 -2.4687,-2.86062 -0.6031,-1.22758 -0.9374,-2.57032 -1.658,-3.73722 -0.6155,-0.99659 0.8337,-0.85073 0.3705,-2.69858 -0.2065,-0.82398 0.059,-1.71512 -0.3464,-2.54446 -0.1052,-0.21512 0.1523,-0.56624 0.4139,-0.80765 1.1478,-1.05943 0.4205,-1.82888 0.5446,-2.21028 0.5642,-1.73258 -0.7887,-2.23233 -0.2048,-4.3824 0.3238,-1.19242 -0.4998,-2.77957 -1.6425,-3.16392 -0.9242,-0.31077 -1.6514,-0.9842 -2.622,-1.21918 -1.3161,-0.3186 0.4809,-2.84288 -2.2604,-4.37808 -0.8312,-0.46549 -1.1131,-1.34701 -1.5654,-2.10131 -2.3651,-3.9445 -0.6773,-6.8062 -4.5311,-9.10194 -1.9822,-1.18083 -2.6277,-1.30881 -3.2241,-2.45858 -0.2692,-0.51918 -0.9149,-0.79465 -1.103,-1.24822 -0.1934,-0.46629 0.7029,-0.8598 0.6288,-1.47391 -0.1731,-1.43444 0.083,-2.7984 0.5534,-4.14494 0.2297,-0.65753 -0.5802,-0.8879 -0.3408,-2.10295 0.2075,-1.05319 -0.2166,-2.04537 -0.2048,-3.08326 0.01,-0.62922 -0.2891,-1.30984 -1.0152,-1.64003 -0.91,-0.41383 -0.2368,-2.29283 -2.644,-2.72139 -1.4952,-0.26613 -1.4651,1.52741 -2.1505,1.14245 -0.814,-0.45709 -0.2099,-0.79433 -0.3047,-1.08998 -0.5919,-1.84798 1.5568,-3.38285 -0.3176,-5.82308 -1.5913,-2.07179 0.9844,-2.25308 -0.2362,-4.5895 -0.096,-0.18303 -0.174,-0.37915 -0.034,-0.52851 0.5979,-0.63749 0.5005,-1.44652 0.5798,-2.21121 0.1425,-1.37283 -0.2322,-2.07285 -1.4752,-2.66464 -1.6508,-0.78593 -0.5338,-1.35234 -2.1995,-1.85042 -1.2954,-0.38738 -0.7397,-1.32574 -0.7567,-1.47862 -0.3968,-3.59352 -1.2786,-3.69136 -2.1136,-3.69808 -3.7066,-0.0295 0.19,-5.77553 -0.4654,-7.40031 -0.687,-1.70335 -0.3062,-3.67439 -1.4461,-5.2831 -0.3594,-0.50725 0.098,-1.28983 0.2625,-1.92182 0.6968,-2.67503 -0.095,-4.1769 -0.2483,-4.30286 -1.7345,-1.42971 1.6132,-1.3684 0.6333,-5.35008 -0.094,-0.38357 -0.086,-0.70155 -0.027,-1.08649 0.6138,-3.98244 -1.2498,-3.43468 -2.0402,-5.85976 -0.7666,-2.35232 2.2801,-3.82956 -0.2131,-7.70437 -0.1676,-0.26051 -0.1309,-0.51367 -0.1366,-0.77555 -0.067,-3.04393 -4.1193,-1.77765 -5.4146,-5.6809 -0.7315,-2.20463 -1.5445,-2.1684 -1.3433,-3.66017 0.6259,-4.64301 -2.0724,-4.93791 -2.3428,-6.20312 -0.2619,-1.2247 -2.8052,-3.0213 -4.997,-2.96153 -2.1375,0.0583 -2.9962,-5.48674 -6.3139,-6.32344 -0.532,-0.13422 -2.3068,-1.55154 -2.305,-1.56362 0.1732,-1.11768 -0.5849,-1.97532 -0.8133,-2.96092 -0.6668,-2.87682 -2.5694,-3.72698 -3.8537,-5.18954 -0.655,-0.74604 -1.4309,-1.34792 -2.4243,-1.52281 -1.1163,-0.19645 -1.7831,-1.20803 -2.8483,-1.47021 -0.2147,-0.0529 -0.1757,-0.24033 -0.1874,-0.39504 -0.1105,-1.45493 -0.6336,-2.5804 -2.1675,-3.07312 -1.6746,-0.53798 -0.2409,-2.43166 -4.7342,-2.89075 -1.3884,-0.14187 -2.3698,1.11233 -4.7206,-2.1444 -1.0206,-1.41395 -2.1835,-2.72518 -3.977,-3.21133 -0.7924,-0.21479 -1.5935,-4.58951 -6.1772,-4.87646 -0.4471,-0.028 -0.7508,-0.28404 -0.8933,-0.6936 -1.0539,-3.02818 -3.6444,-2.99837 -3.9977,-4.07523 -0.6346,-1.9345 -1.7412,-0.36843 -1.3385,-5.22732 0.074,-0.89524 0.017,-1.69142 -0.592,-2.43043 -0.3687,-0.44716 -0.4875,-1.10683 -0.8712,-1.53396 -2.2657,-2.5217 -2.8078,-4.59792 -5.1598,-3.52197 -2.1421,0.97993 -1.7379,4.1376 0.4287,5.79723 1.6226,1.24304 0.5849,2.62566 1.284,7.01781 0.3255,2.04518 1.7457,2.07163 1.9966,2.70301 0.9761,2.45611 3.3932,2.03524 3.8067,3.34158 0.5062,1.59908 2.706,3.54505 4.8088,3.52335 2.2271,-0.0229 1.1698,3.0664 4.8375,4.49442 1.6218,0.63153 2.6653,3.56875 5.2812,5.17594 3.0946,1.90133 4.7852,-0.38295 5.4298,1.18403 0.3433,0.83486 1.2337,0.0387 2.0321,2.66709 0.3202,1.05393 0.9825,2.21824 2.0779,2.57077 1.198,0.38556 2.2484,1.12885 3.4673,1.36121 0.9116,0.17382 1.5108,0.66288 1.9805,1.35923 0.4306,0.63857 1.3482,0.71608 1.6214,1.51822 0.3284,0.96434 0.8771,1.82856 0.7433,2.95694 -0.4438,3.74426 4.5036,2.99103 7.9011,8.86379 0.6314,1.09139 2.3595,1.73698 1.7249,2.84381 -1.847,3.22172 2.1614,8.04804 2.2597,8.20092 0.5195,0.80856 2.003,4.63598 3.5226,5.45953 0.2396,0.12979 0.2704,0.38494 0.3557,0.60982 0.6371,1.6818 1.8882,1.43215 1.5263,3.11685 -0.3485,1.62248 1.6143,2.23399 0.3147,3.69381 -0.7325,0.82278 -0.2787,1.35143 -0.5684,1.78055 -1.3493,1.99947 1.1062,2.67534 0.8214,5.06052 -0.1899,1.58947 1.3071,3.68861 1.3915,5.75719 0.074,1.81495 1.6695,2.79229 1.3344,3.47733 -1.7282,3.53237 1.0948,5.83561 1.3273,7.48912 0.2504,1.78163 2.592,1.91952 2.1803,3.8502 -0.066,0.30911 -0.035,1.61743 -0.094,1.67323 -1.5688,1.48902 0.5276,2.86965 -0.1374,3.39662 -0.7584,0.6008 -0.8746,1.47143 -0.9214,2.33137 -0.105,1.93526 -1.0757,0.75108 -1.7701,3.66261 -0.2773,1.16279 -1.1724,1.5806 0.1767,3.44096 0.4695,0.64727 0.214,2.0967 -0.5592,2.65057 -0.4245,0.30407 -0.5192,0.63735 -0.4985,1.09613 0.078,1.74342 -0.81,1.60705 -0.4047,4.35222 0.1974,1.3374 0.9388,2.65442 0.2801,4.11026 -0.7895,1.74511 0.7431,1.47555 0.1411,2.39818 -1.1574,1.7737 1.3347,2.14791 0.3073,3.05308 -0.6967,0.61365 -0.623,1.44824 -0.8033,2.21291 -0.048,0.20273 0.04,0.46873 -0.212,0.56381 -0.9858,0.37182 -1.3664,1.71451 -1.27,2.27325 0.337,1.95151 -2.4684,0.18195 -2.104,3.30627 0.1078,0.92446 -0.4758,4.95062 -2.5058,4.19327 -0.671,-0.25027 -1.3346,0.0616 -2.0019,0.0108 -0.2802,-0.0216 -0.089,0.25638 0.064,0.20715 1.1316,-0.36459 2.3603,0.50402 3.4592,-0.27196 0.091,-0.0645 0.3407,-0.18072 0.2932,0 -0.1727,0.66011 0.3936,1.17028 0.2399,1.86676 -0.171,0.77358 0.084,1.60554 0.054,2.42432 -0.035,0.946 1.075,0.47835 3.0757,2.27434 0.2804,0.25163 0.5687,0.43785 0.9919,0.46507 0.8573,0.0552 1.7056,1.78514 2,1.92518 0.7982,0.37989 0.908,1.10283 1.0282,1.84413 0.2059,1.2701 1.4038,0.92948 -0.032,3.51496 -0.2881,0.51838 -0.5077,1.85028 -1.6835,2.06381 -2.3752,0.43142 1.3878,2.82425 1.225,4.24982 0.1801,0.36281 0.3872,0.72145 0.1767,1.14461 0.2712,0.66072 -0.01,0.78653 0.2443,1.03986 0.2069,-1.33218 0.1842,-3.07326 -0.6976,-4.05765 -0.6475,-0.72295 0.7201,-2.2459 0.7708,-1.25498 0.068,1.31721 -0.016,0.55494 1.444,1.65125 0.2557,0.19199 0.3925,2.67225 0.3643,2.9924 0,0 -1.163,2.76292 -1.3583,3.86871 -0.2387,1.3511 1.8398,1.74249 2.4309,2.38946 1.0464,1.14549 1.2546,2.86306 1.429,4.28192 0.2879,-0.46521 0.4403,-3.9002 -2.7442,-5.5149 -1.7606,-0.8925 0.1776,-2.08765 -0.02,-3.29462 -0.1568,-0.95717 1.6834,-1.82002 0.7095,-2.77855 -0.5469,-0.53842 0.8256,-1.733 -0.587,-2.48594 -0.5707,-0.30405 -1.8624,-1.41468 -0.4641,-1.80316 2.8247,-0.78457 0.9683,-1.61498 2.5464,-3.30626 0.2983,0.44104 0.7259,0.95609 0.81,1.3502 0.3371,1.57983 2.3938,2.82852 1.6177,5.03575 -0.3012,0.8566 -0.056,0.82065 0.5628,1.76238 0.073,0.11052 -0.1806,0.30729 0.091,0.33006 0.02,0 0.1205,-0.30439 0.085,-0.44166 -0.2125,-0.81483 -1.0551,-0.77419 -0.4883,-1.51947 0.2131,-0.28036 2.6381,1.61835 1.8148,3.64659 0.028,0.0314 0.056,0.0627 0.084,0.094 0.3328,-0.33404 0.1521,-1.15451 0.4418,-1.07778 0.06,0.016 0.1411,0.22794 0.1103,0.26478 -0.5508,0.66198 0.2238,2.85499 -1.7079,3.22296 -0.1046,0.0197 -0.3319,-0.0436 -0.2854,0.15886 0.089,0.38768 1.1025,-0.56719 1.4743,0.17181 0.085,0.16847 0.1292,0.0249 0.1295,-0.0933 0,-1.57462 1.6401,-3.85632 -0.3362,-5.35389 -0.5422,-0.41096 -0.7107,-1.12517 -1.2991,-1.48259 -0.058,-0.0357 -0.1202,-0.14782 -0.1066,-0.20761 0.5402,-2.34773 -3.5221,-5.37209 -2.7724,-8.51415 0.2079,-0.87171 -0.2296,-1.17305 -0.035,-1.65046 0.6284,-1.53839 -0.8594,-2.06203 -0.7144,-4.19891 0.095,-1.39943 -0.3681,-2.62855 -0.8474,-3.8742 -0.2606,-0.67742 -0.2336,-0.0665 -1.4751,-1.33373 -2.3733,-2.4223 -3.2881,-2.00402 -2.8042,-3.18716 0.7466,-1.82578 -2.557,-1.4679 -0.9108,-3.0864 1.258,-1.23696 0.4257,-3.17819 1.0815,-3.2659 0.5911,-0.0791 1.0402,-0.41645 1.4134,-0.8688 0.07,-0.0847 0.093,-0.24507 0.2626,-0.21025 -0.024,0.0991 -0.017,0.22414 -0.076,0.29355 -1.4703,1.73178 1.1674,3.07297 0.7852,4.43172 -0.033,0.11681 -0.012,0.27641 0.1473,0.34324 0.2425,-3.66265 -2.3631,-1.04831 -0.073,-5.93454 0.6525,-1.39192 -0.2889,-1.15132 -0.3452,-1.77412 -0.2129,-2.35918 -1.8093,-2.61114 -1.2692,-3.36253 0.5981,-0.83182 0.8354,-1.90181 1.8992,-2.4338 1.5398,-0.77001 0.083,-2.59416 0.1404,-2.95997 0.1776,-1.12504 -0.3046,-2.03068 -0.9057,-2.92304 -0.3176,-0.47145 -0.2083,-1.20069 -0.9605,-1.42937 -0.4134,-0.12568 0.3045,-1.1391 0.6332,-1.70291 1.122,-1.92456 -1.8992,-3.07756 -0.7186,-4.17689 0.3705,-0.34505 0.2883,-0.84495 0.4083,-1.27729 0.2799,-1.00822 1.6826,-1.86479 1.6483,-2.95709 -0.054,-1.72613 0.8159,-2.14349 1.3071,-2.97238 0.07,0.17229 0.1304,0.34947 0.2123,0.51596 0.8957,1.81953 0.2754,2.91108 0.9162,4.04634 0.2079,0.36812 3.3566,8.56598 3.4087,8.71887 0.2176,0.63899 1.9593,2.10464 0.9114,2.83327 -0.5592,0.38876 -1.0048,0.89677 -1.2627,1.55307 -0.6853,1.74371 0.6832,0.24446 -0.1148,4.58523 -0.1243,0.6763 0.6569,1.07637 -1.1168,3.43438 -1.9105,2.54001 -0.5306,7.09407 2.1658,6.99134 2.3491,-0.0896 1.0306,3.04483 5.2622,4.50268 2.3042,0.79372 3.4535,1.96109 3.04,2.46529 -0.7971,0.97182 -1.3762,2.10647 -2.1128,3.10644 -1.545,2.09746 -2.7516,2.92422 -1.629,4.33069 1.3426,1.68227 -1.3264,2.77183 0.6278,5.72279 0.3954,0.59699 -1.1554,2.78099 1.5679,3.95107 0.1212,0.0521 0.2978,0.11254 0.3318,0.20978 0.3667,1.05333 1.4983,1.43824 2.0347,2.35125 0.538,0.91587 -1.3337,0.98481 -0.6163,2.73772 0.068,0.16692 -0.051,0.4164 -0.099,0.62416 -0.3432,1.48231 1.3489,2.89108 2.6694,2.34482 0.5296,-0.21907 2.395,-0.22381 2.2626,0.60497 -0.5555,3.47549 2.8715,2.59415 1.9842,3.7832 -0.6582,0.8818 0.4147,1.22626 -1.3123,2.59482 -0.1998,0.1582 -0.3527,0.42499 -0.4357,0.67278 -0.6195,1.84831 -4.9694,3.67409 -1.2926,5.48904 3.912,1.931 1.3018,0.35835 3.2297,4.08852 0.5864,1.13466 1.7853,1.74282 2.1951,2.98785 0.3122,0.9483 1.0638,1.48245 2.0662,1.7515 0.864,0.23192 1.6659,3.15369 0.6878,5.11281 -0.3272,0.65536 0.1787,1.78528 0.8466,2.08568 1.0094,0.4539 1.3412,1.43275 1.9151,2.22881 0.1955,0.27134 -0.056,0.38632 -0.1896,0.53185 -1.5185,1.65243 0.5353,1.63563 0.058,3.91564 -0.3359,1.60536 0.8861,2.18583 -0.2419,2.90952 -0.7866,0.50482 -0.2354,0.70202 -0.7685,2.19362 -0.6749,1.88895 0.6814,1.83653 0.035,2.43075 -1.0226,0.93957 -0.7534,2.45248 -1.0177,2.89305 -0.3469,0.57817 -0.593,1.14536 -0.082,1.76497 0.058,0.0699 0.072,0.22502 0.038,0.31414 -0.3146,0.81774 -0.4328,1.60278 0.2859,2.29086 0.03,0.0281 0.041,0.1237 0.018,0.15134 -0.6447,0.76641 -0.074,1.58781 -0.1175,2.37983 -0.098,1.78454 2.9829,1.20468 1.8309,2.67413 -1.167,1.48888 -0.5671,3.05064 -0.1435,4.58936 0.084,0.30438 0.3322,0.55508 0.033,0.86894 -0.064,0.0673 -0.1133,0.22611 -0.078,0.29875 0.4518,0.93911 -0.04,2.07897 0.6553,2.97208 1.0194,1.30863 -1.4802,1.41901 -0.2758,3.06331 0.9177,1.25269 -0.3481,2.47693 1.0094,3.23672 1.2536,0.70169 -1.155,0.64636 0.2116,2.53057 0.3555,0.48994 0.3089,0.84158 -0.036,1.26291 -0.4545,0.55522 -0.2473,1.38752 -0.7827,1.9143 0.5545,0.18194 0.1825,0.68779 0.3522,1.00382 0.019,0.0357 0.082,0.0894 0.084,0.0877 0.5982,-0.51613 0.3556,0.24338 0.5001,0.36615 0.3215,0.27284 0.3392,0.76588 0.6604,1.08829 0.5983,0.60064 -0.5699,1.56776 -0.225,2.29822 0.1099,-0.0552 0.5712,-1.157 0.6462,-1.32346 0.039,0.0605 0.5725,0.84206 0.5491,0.90884 -0.48,1.37315 1.4265,2.5286 -0.4157,4.71944 -0.017,0.0202 -0.9999,1.49132 -1.01,1.51577 0.153,-0.0291 0.4343,-0.0399 0.7618,-0.62585 0.8964,-1.60507 2.1129,-1.22208 1.6073,-2.64953 -0.7005,-1.97788 -0.3042,-4.43003 -1.373,-5.2765 -0.3331,-0.26374 -0.2996,-0.57469 -0.072,-0.92432 0.9079,-1.39788 -0.043,-4.69894 -0.4989,-5.53644 -0.2728,-0.50111 0.974,-0.99673 -0.4016,-1.94245 -0.8243,-0.56686 0.1569,-2.02054 -0.7822,-3.06514 -0.2225,-0.24736 -0.2294,-0.52514 0.011,-0.71745 1.6801,-1.34472 -0.5064,-3.00953 0.406,-3.13291 0,0 -0.8167,-2.09258 -0.2026,-3.40561 0.5776,-1.23481 0.7057,-0.0754 1.1447,0.11432 1.9684,0.85078 2.0246,3.58985 2.7217,4.87417 0.3981,0.73336 -0.7182,1.4152 -0.8917,3.16364 -0.079,0.79494 -0.8953,4.4964 -0.4201,4.69026 0.3806,0.15529 0.046,-2.36533 0.6187,-3.31715 0.2874,-0.47727 0.047,-1.01372 0.2177,-1.54815 0.5251,-1.64342 1.2572,-2.51527 0.8159,-3.26103 -0.2636,-0.44503 -1.0034,-3.01764 -0.8501,-3.08076 0.056,-0.023 0.2042,0.0272 0.2175,0.0718 0.2252,0.74848 1.0091,1.02062 1.389,1.6529 0.7468,1.24274 -0.4575,1.18605 -0.2135,1.78242 0.7335,1.79289 0.066,1.89792 0.3262,2.72819 0.1841,-0.11479 -0.2367,-3.32963 2.4119,2.38931 0.1817,0.39229 -0.5694,0.9682 0.011,1.50676 1.7634,1.63474 2.4624,1.49836 1.9437,1.17089 -2.9457,-1.85957 0.1249,-2.11628 0.9955,-2.66141 1.8556,-1.16202 -1.0271,-3.18551 0.5028,-4.46828 0.8263,-0.693 -0.1079,-1.96859 -1.3375,-2.0449 -1.7908,-0.11127 -2.2902,0.14403 -3.5367,-1.13066 -0.3863,-0.39506 -1.4992,0.0894 -0.3264,-1.85423 0.4597,-0.76194 0.6169,-0.03 1.1136,0.63871 0.026,-0.23146 -0.073,-0.50205 -0.1557,-0.60877 -0.9128,-1.17318 0.7204,-2.07329 0.7331,-2.22618 0.1107,-1.3389 1.853,-3.81165 0.131,-4.74545 -1.7503,-0.94905 -0.2778,-1.94245 -1.0368,-2.36683 -0.6273,-0.3507 -0.6162,-0.88316 -0.5327,-1.46762 0.1044,-0.73182 -0.4481,-1.23354 -0.7176,-1.81603 -0.4498,-0.97214 -1.4996,0.27229 -2.3863,-0.4745 -1.3192,-1.11128 0.7422,-0.50726 0.1448,-4.33237 -0.016,-0.10137 -0.041,-0.25487 -0.1083,-0.28664 -1.4703,-0.69761 -1.1388,-3.41482 -2.3332,-4.50057 -0.484,-0.43997 0.451,-1.70518 -0.2605,-3.05186 -0.4534,-0.85839 0.6974,-1.2976 0.7049,-0.18223 0.011,1.6552 1.0316,1.6529 2.5996,4.23073 1.9363,3.18377 5.2957,0.3293 4.945,2.13152 -0.1565,0.80414 0.8936,0.88289 1.6808,2.05011 1.6917,2.50884 4.8821,2.09671 3.8141,3.15689 -0.9453,0.93835 -0.6681,2.13477 -0.3615,3.24953 0.3925,1.42866 -0.5143,0.42363 -0.9295,1.85136 -0.3929,1.35128 -1.4409,0.7977 -1.3007,4.5742 0.013,0.34305 -2.3159,3.57183 1.4994,6.73604 1.2073,1.00138 0.1114,2.82885 1.589,3.65622 0.5361,0.30025 0.5318,1.28952 0.4341,1.41961 -0.5152,0.68625 -0.038,1.78589 -1.0876,2.25678 -1.5773,0.70732 -0.2023,3.59183 1.6856,3.68522 1.2821,0.0634 -0.2627,1.38521 1.9004,2.93233 2.9918,2.13951 2.6186,-0.48187 4.2956,4.36297 0.3723,1.07548 -0.01,1.72043 -0.2184,2.59857 -0.5852,2.46867 -2.3392,-1.11002 -4.4822,2.29532 -1.8411,2.92527 -1.0466,6.42827 2.4728,6.71107 1.1809,0.095 2.1971,1.6975 2.3664,1.8249 0.6286,0.4724 -0.3151,0.3217 -0.3616,1.7086 -0.026,0.7894 -0.5303,1.2206 -1.2424,1.3823 -2.0541,0.4659 -0.49,4.3258 -0.049,6.3181 0.2391,1.08026 0.1618,2.39076 1.1938,3.21886 0.1193,0.096 0.1897,0.2078 0.1187,0.4145 -1.0888,3.1645 3.6263,1.9834 1.963,5.1385 -0.7695,1.4599 1.9564,3.0116 0.289,4.6897 -2.4143,2.4296 0.912,3.1749 -0.014,4.7085 -0.3906,0.6471 -0.2033,1.5335 -0.8543,2.1213 -1.4361,1.2972 -2.6252,-0.875 -4.3969,0.5105 -1.293,1.0112 -0.6032,3.0222 0.9368,3.8593 0.3782,0.2057 0.4336,1.272 0.054,1.5476 -0.338,0.2452 -0.5388,0.4949 -0.5166,0.9281 0.037,0.7101 -1.9238,0.6458 -1.3273,2.3079 0.4501,1.254 -0.7763,1.7337 -0.7436,2.1835 0.055,0.7514 -0.079,1.7102 0.3287,2.2007 0.7843,0.9437 0.9353,2.3566 2.279,2.9153 0.6519,0.2711 0.7563,2.2522 0.1808,3.0449 -0.5979,0.8235 -0.6207,1.5384 -0.056,2.3553 0.5891,0.8525 0.4899,3.4685 -0.086,4.1311 -0.7639,0.8787 0.848,1.7452 0.3674,2.6444 -0.6459,1.2085 -0.5331,2.4545 -0.4117,3.7874 0.1861,2.0432 1.3105,2.038 1.6239,2.7776 0.672,1.5859 -1.3623,1.0365 -0.7435,2.5815 0.5586,1.395 -1.6683,2.507 -0.077,4.748 0.6246,0.8795 -1.0852,1.194 -0.1407,2.0183 0.3398,0.2966 0.6713,1.4861 0.6697,1.813 0,0.1949 -0.2956,0.2971 -0.1652,0.528 0.063,0.1121 0.6936,-0.4996 0.4823,-0.7976 -0.3545,-0.4997 -0.1908,-1.165 -0.6335,-1.6238 -0.3055,-0.3166 -0.2046,-0.8445 0.1601,-0.8359 1.3385,0.032 -1.3328,-2.1058 0.014,-4.1754 0.8528,-1.3105 -0.2652,-1.9622 0.6057,-2.5977 0.8398,-0.6126 0.8523,-2.0481 0.012,-2.6373 -0.563,-0.395 -1.0865,-0.665 -0.8766,-1.5781 0.1301,-0.566 -0.9588,-1.6434 0.3376,-3.9571 0.2536,-0.4526 0.3467,-0.986 -0.1966,-1.4644 -1.0342,-0.9102 0.9374,-1.3593 0.3024,-2.8082 -0.061,-0.1382 -0.072,-0.3363 -0.023,-0.4782 0.6395,-1.8478 -1.1249,-2.7475 -0.4237,-3.7427 0.8751,-1.2419 1.0389,-3.4478 -0.052,-4.4129 -0.7602,-0.6726 -1.2269,-1.4287 -1.7809,-2.1932 -0.6817,-0.9407 0.1206,-0.7329 -0.3359,-1.3566 -0.6647,-0.9083 1.0721,-1.2701 0.5649,-3.1575 -0.2594,-0.9653 1.1585,-0.4221 1.3608,-1.9058 0.025,-0.1813 0.1268,-0.2862 0.2476,-0.3976 0.7694,-0.7108 0.5954,-1.6918 0.65,-2.5693 0.1042,-1.6723 -2.3867,-0.5577 -1.9568,-2.3858 0.1025,-0.4355 0.7896,-0.5311 0.9633,-0.1854 0.4743,0.9446 4.4342,0.3166 4.802,-2.7108 0.025,-0.2105 0.063,-0.4597 0.1902,-0.6112 1.5682,-1.8656 -1.6682,-2.6508 -0.1939,-4.1988 1.4525,-1.5249 0.9537,-3.8247 0.2058,-4.5276 -0.081,-0.076 -0.088,-0.3566 -0.014,-0.4523 0.5852,-0.7525 0.3042,-1.5863 0.2796,-2.4027 -0.034,-1.1369 -0.9217,-1.5741 -1.6949,-2.0815 -1.4102,-0.9251 0.4413,-1.2469 -1.0005,-2.672 -0.5234,-0.5175 -0.3766,-1.4182 -0.3766,-1.4182 -0.6782,-0.77646 -0.2663,-1.89806 -0.8595,-2.69096 -0.209,-0.2791 -0.1084,-0.5717 -0.1069,-0.8605 0.01,-1.3207 -1.1965,-1.4002 -0.1314,-2.0658 0.8042,-0.5027 1.6171,-1.0093 1.8788,-2.0214 0.05,-0.1951 0.1475,-0.3438 0.2359,-0.037 0.3079,1.067 1.0518,0.6734 4.0173,3.0017 1.2831,1.0073 -0.4426,1.147 0.4215,2.2695 1.5452,2.00716 0.495,3.73756 -1.4305,5.44796 -2.3249,2.0654 1.3534,2.8952 0.5727,4.932 -0.058,0.1515 0.095,0.3083 0.1972,0.2917 0.2026,-0.033 0,-0.2058 0.047,-0.3182 0.3411,-0.753 -0.08,-0.8764 0.044,-1.3318 0.065,-0.2409 0.4588,-0.046 0.4861,-0.353 -1.5885,-0.054 -2.511,-2.1998 -0.9714,-3.1971 0.5013,-0.3249 0.874,-0.7898 1.2805,-1.2171 0.1029,-0.2142 0.206,-0.4282 0.3088,-0.6421 0.032,0.017 0.065,0.033 0.097,0.05 -0.1395,0.1931 -0.2791,0.3864 -0.4189,0.5796 -0.017,2.9644 1.1338,1.8157 1.2825,2.6205 0.3394,1.8352 -0.1233,1.9135 0.7165,2.4069 1.8488,1.0858 -0.1198,1.4163 -0.089,2.6409 0.043,1.7466 -1.5112,2.6838 -0.3014,3.5747 0.9295,0.6844 1.0799,2.1736 0.2776,2.9946 -1.8203,1.8623 1.3091,2.333 -0.094,3.1724 -0.833,0.4983 -0.3678,0.9442 -0.048,1.4398 0.7729,1.1964 1.2219,2.2559 1.2219,2.2559 0.4106,-0.2645 -0.577,-1.8526 -0.8518,-2.25 -1.0997,-1.5903 0.7604,-0.9801 0.2548,-2.3088 -0.8725,-2.293 1.8627,-3.9577 -0.4685,-5.6868 -0.3385,-0.2511 -0.2986,-0.5469 -0.1581,-0.8623 1.2878,-2.8927 0.2313,-2.2347 1.1615,-3.1057 1.6875,-1.5795 -1.0564,-1.7544 -0.8133,-3.5427 0.3359,-2.4725 -2.0544,-0.7907 -1.2984,-3.2765 0.2208,-0.726 1.6523,-1.8779 -0.03,-4.13926 -0.3233,-0.4344 -0.5517,-0.7613 -0.1684,-1.3551 0.4441,-0.6881 -0.055,-1.5298 -0.888,-1.7905 0,0 -1.2061,-1.0235 -2.4818,-1.6347 -1.5776,-0.7558 -1.5232,-2.2768 -0.8096,-2.7569 0.9944,-0.6691 0.7687,-1.8674 -0.4094,-2.1208 -1.2386,-0.2662 -0.4112,-1.2352 -1.3663,-1.8903 -0.3092,-0.2121 -0.1118,-0.5225 0.036,-0.7948 0.996,-1.8301 -0.5398,-1.8819 -0.8507,-2.7107 -0.7417,-1.97598 0.5737,-0.048 3.0161,-1.34966 2.5117,-1.33828 -0.1647,-4.95686 -1.1274,-5.41855 -0.2574,-0.12338 -0.049,-0.3073 0.028,-0.47333 0.6048,-1.29957 0.4178,-1.82823 -0.8834,-2.5324 -0.9913,-0.53626 -0.036,-1.3687 -2.5075,-1.84259 -0.1798,-0.0343 -2.2097,-0.54349 -2.095,-1.73638 0.2866,-2.98081 -2.3164,-1.87014 -2.6199,-2.52475 0,0 1.988,-2.28598 1.3442,-4.5964 -0.138,-0.49534 0.1919,-1.31505 -0.2098,-1.56209 -1.0645,-0.65476 -0.7747,-1.8125 -1.1315,-2.72795 -0.944,-2.42202 -1.9415,-1.41793 -2.0893,-2.55929 -0.089,-0.68273 -0.8057,-1.17366 -0.5146,-2.00393 0.1787,-0.50984 0.6197,-0.83088 0.7264,-1.40506 0.3097,-1.66651 -0.6521,-1.86268 1.3538,-4.44721 0.7814,-1.00668 1.4377,-1.96048 0.7805,-3.29416 -0.371,-0.75293 0.2144,-1.69772 1.216,-1.16155 1.0947,0.58596 1.349,-0.0945 1.7706,0.33982 1.3438,1.3846 3.6362,0.23131 3.685,2.09868 0.068,2.62325 2.0644,1.68119 1.9858,3.51481 -0.067,1.565 0.4761,4.02232 2.0128,4.37546 0.9347,0.21479 -0.3553,0.93549 0.1053,3.16655 0.3427,1.659 1.6507,1.63272 1.5533,3.11226 -0.051,0.76805 1.017,1.69983 0.7983,2.19193 -0.536,1.20482 -0.3646,2.52189 -0.5267,3.78433 -0.073,0.57235 0.3504,1.15085 0.7627,1.5673 1.8018,1.81907 -0.7487,5.36045 0.2671,6.78143 0.7904,1.10579 1.8445,4.45087 3.3381,5.11402 0.9747,0.43283 0.068,2.32774 0.5016,3.19621 0.2596,0.52 0.035,1.0394 -0.1985,1.5118 -0.096,0.1944 -0.3005,0.3742 -0.1506,0.5748 0.7059,0.9444 0.8962,2.4276 2.2183,2.7207 1.3716,0.3041 2.0638,1.4001 2.6917,2.3007 1.6292,2.3368 0.649,2.2809 0.7404,3.0347 0.318,-0.194 0.7717,-0.7937 0.5184,-1.1655 -0.6779,-0.9952 -0.5081,-2.4742 -1.7862,-3.1179 -0.1058,-0.053 -0.2204,-0.1956 -0.2338,-0.3081 -0.1645,-1.3742 -1.3462,-0.3487 -2.785,-2.363 -1.0597,-1.4837 0.2448,-2.745 -0.1686,-3.31401 -0.1483,-0.20424 -0.2869,-0.48295 -0.168,-0.68273 0.4268,-0.71764 -0.027,-1.40952 -0.01,-2.11125 0.034,-1.30619 -0.9541,-0.53157 -1.8614,-2.51147 -1.8441,-4.02414 -2.042,-3.35441 -1.7814,-4.00307 2.3096,-5.75199 -2.188,-6.52796 -0.1205,-10.79276 0.6038,-1.2455 -0.7809,-1.40558 -0.6343,-2.84124 0.1995,-1.95315 -2.389,-1.44603 -1.4695,-4.76088 0.8688,-3.13197 -1.6305,-0.95516 -2.0545,-4.52436 -0.064,-0.54194 0.014,-3.04778 -1.2866,-3.47076 -0.5392,-0.17537 -0.7272,-0.55601 -0.7144,-1.12076 0.022,-0.94553 -0.9408,-2.34543 -1.8065,-2.67685 -0.1815,-0.0694 -1.8324,0.0653 -2.1522,-0.35103 -1.0781,-1.4037 -2.7671,-0.14417 -2.2794,-1.2051 0.4354,-0.94708 0.7112,-1.31829 0.3946,-1.96629 -1.6838,-3.44527 0.4306,-1.75215 -2.7615,-6.90776 -0.039,-0.0633 -0.6582,-1.74615 -0.6026,-1.77017 0.8055,-0.34916 1.0267,-1.33829 1.8033,-1.6865 0.8612,-0.38618 1.5297,-0.90367 1.7332,-1.87229 0.1101,-0.52392 0.4522,-0.19767 0.5056,-0.0446 0.441,1.26231 1.4437,2.23642 1.7562,3.58019 0.4489,1.93114 1.6563,1.57387 2.4078,2.41381 1.4403,1.60916 2.4823,0.36488 2.0201,2.36088 -1.1649,5.03068 4.8398,5.3314 6.1397,6.95722 1.0563,1.32087 2.2472,2.42784 3.9953,2.74949 0.4354,0.0801 1.8067,1.12119 1.7564,1.38953 -0.2473,1.31886 0.4956,2.18564 1.3562,2.99789 0.7063,0.66668 1.0152,4.81655 3.5923,5.65616 0.2325,0.0756 0.2201,0.201 0.1454,0.36201 -0.3041,0.65504 -0.1279,1.37968 -0.313,2.06381 -0.3567,1.31717 0.7089,1.64788 0.2307,3.32232 -0.085,0.29781 -0.191,0.67052 -0.011,0.86312 1.2694,1.36278 -1.073,1.72569 -1.3804,6.30617 -0.134,1.99534 1.3526,1.52417 -0.5106,2.90849 -1.2889,0.9576 -4.77,5.34272 -3.3097,11.05758 0.3459,1.35341 3.333,1.87711 2.6226,5.49721 -0.1129,0.5758 1.1093,2.5927 1.4152,2.8864 0.3712,0.3563 0.1888,0.7663 -0.01,1.1189 -0.8499,1.5332 1.0584,1.4141 1.2754,4.2675 0.1048,1.3802 2.3559,2.201 3.3322,2.4312 2.0622,0.4863 0.8637,2.16056 2.1657,3.79036 0.9752,1.2209 -0.024,1.6074 0.706,3.987 0.282,0.9196 1.2854,1.3567 1.3771,2.3525 0.02,0.2137 0.2345,0.3645 0.434,0.4573 4.3543,2.0245 1.4179,8.2674 6.5188,8.0227 2.1417,-0.1028 -3.1126,3.443 -2.0854,6.0864 0.6138,1.5794 -1.272,2.2223 -0.6681,3.9083 0.3581,0.9994 0.026,2.0585 0.164,3.093 0.3801,2.8551 -0.3498,2.8175 -0.3595,4.2023 -0.012,1.705 0.1229,2.5015 -1.0652,3.3397 -0.1668,0.1178 -0.3805,0.3396 -0.3733,0.5047 0.039,0.8861 -0.6028,1.5527 -0.7224,2.3595 -0.2851,1.925 -1.485,0.5354 -2.7119,3.8442 -0.7839,2.1145 0.694,2.5509 0.1508,3.8303 -0.433,1.0196 1.8265,2.2672 -0.4585,3.0715 -1.868,0.6575 -0.828,2.5234 -1.4947,3.4449 -2.119,2.929 0.3934,2.2548 -0.3392,4.098 -0.2361,0.5938 0.031,1.2525 0.3215,1.7572 0.7444,1.2941 -0.2535,2.1471 -0.1665,3.2127 0.077,0.9376 -0.3354,1.7876 -0.3525,2.6983 -0.01,0.5389 -0.556,0.539 -0.8543,0.713 -1.7587,1.0259 -0.5944,1.8759 -1.4739,2.4876 -1.2245,0.8513 0.6934,1.0801 0.1133,5.441 -0.1353,1.0177 -0.4128,2.1546 0.4329,3.0921 0.3445,0.3819 -0.1698,1.778 1.2452,2.5668 0.2031,0.1131 0.4405,0.3051 0.5013,0.5089 0.4649,1.556 2.5483,1.9685 2.6397,3.1375 0.021,0.2677 1.3319,1.7026 1.1526,2.93 -0.028,0.1905 0.052,0.4686 0.1869,0.5996 0.9182,0.8928 0.7794,1.959 0.5313,3.0377 -0.1632,0.709 0.6621,2.4168 0.2516,3.0651 -0.6405,1.0115 0.19,2.1338 -0.449,2.8165 -0.4652,0.497 -0.75,1.0451 -0.7112,1.7413 0.06,1.0703 -0.4375,2.1108 -0.1545,3.1991 0.128,0.4919 -0.1657,0.999 -0.169,1.4277 -0.013,1.7137 -1.4995,2.6434 -1.956,4.0922 -0.2391,0.7589 -0.075,2.7746 0.036,2.9068 0.054,-0.048 0.1396,-0.087 0.1549,-0.1454 0.2016,-0.7645 -0.6423,-1.9819 1.6125,-4.6977 1.6306,-1.9644 0.5377,-6.0922 1.4313,-7.2519 1.6441,-2.1343 1.0114,-6.8761 1.0114,-6.8761 0.5869,-0.8459 0.1009,-2.7374 -0.345,-3.7314 -0.7547,-1.6816 -0.3161,-2.653 -1.0205,-3.0687 -0.133,-0.078 -0.3137,-0.2139 -0.3259,-0.3379 -0.1032,-1.0531 -0.9237,-1.513 -1.626,-2.1019 -1.6269,-1.3641 -0.4005,-1.2578 -1.3758,-1.8913 -0.3161,-0.2055 -0.7879,-0.3985 -0.8731,-0.6901 -0.7203,-2.4704 -1.148,-2.5749 -0.4518,-5.9319 0.2285,-1.1023 -1.2384,-4.6234 1.3303,-5.3665 0.9238,-0.2672 0.3979,-1.1449 1.1189,-2.9027 0.3687,-0.899 -0.3187,-0.9322 0.1564,-1.9727 0.56,-1.2261 0.563,-2.3982 -0.032,-3.6401 -0.2822,-0.5898 0.024,-1.3331 -0.1444,-2.005 -0.2058,-0.818 -0.5097,-1.6776 0.4082,-2.3141 0.5414,-0.3752 -0.046,-1.8263 0.5226,-2.153 1.1377,-0.6537 2.4931,-1.6681 2.0948,-2.8768 -0.4773,-1.4477 -0.3023,-2.9993 -0.7793,-4.4692 -0.3884,-1.197 0.6427,-1.9253 1.4334,-2.5709 1.6528,-1.3493 1.4956,-3.9318 2.8998,-4.9585 1.4317,-1.0468 0.2614,-2.5831 1.119,-4.7807 0.7872,-2.0167 -0.4468,-3.3969 0.2842,-5.1187 0.049,-0.1141 0.066,-0.2991 0.01,-0.3923 -1.0747,-1.6786 0.9359,-2.7024 0.5175,-4.9713 -0.3643,-1.9744 0.6184,-1.3065 1.1617,-2.6343 0.455,-1.1117 1.6662,-2.9506 1.7229,-1.9543 0.028,0.4977 0.2983,0.5758 0.7166,0.6937 1.2431,0.3503 1.8085,2.1712 1.0748,3.3059 -1.6264,2.5151 0.9379,3.7008 0.9202,3.8537 -0.1081,0.9361 0.5036,1.8597 0.1102,2.7801 -0.4076,0.9538 -0.3805,1.604 0.4675,2.2117 1.5421,1.1051 0.9236,3.0734 3.7538,2.3553 1.7009,-0.4316 -0.2917,0.9295 1.1254,2.1582 0.6683,0.5794 0.7019,1.3442 0.2162,2.051 -0.458,0.6664 -0.011,1.6099 0.8745,1.7163 2.0263,0.2435 2.2792,3.1175 2.6823,3.6995 0.1907,0.2753 0.071,0.5578 -0.039,0.8472 -0.652,1.7254 -0.1794,1.2103 1.1148,3.5471 0.5458,0.9855 -5.6349,0.5693 -3.6095,3.1913 1.2375,1.6021 2.6421,2.7557 1.2511,4.2352 -0.444,0.4724 0.3911,0.1311 0.588,-0.2843 0.082,-0.1734 0.069,-0.4685 0.2826,-0.4779 0.1998,-0.01 0.741,0.6531 0.1825,1.0136 -0.5093,0.3288 -1.6137,1.9823 -0.8606,3.1436 0.1467,-0.4592 -0.4552,-1.7197 1.226,-3.1195 0.6641,-0.5528 -1.5214,-3.9145 -2.2754,-4.5631 -1.476,-1.2696 1.3175,-2.1122 1.3741,-1.6108 0.1605,1.4254 1.6293,1.2947 2.0502,2.0607 0.9868,1.7964 2.1569,2.1634 3.5874,2.5438 0.403,0.1073 0.7303,0.4985 1.2084,0.3246 -2.1439,-1.0269 -2.0335,-0.385 -3.933,-2.085 -0.08,-0.072 -0.2429,-0.1125 -0.2563,-0.1875 -0.2911,-1.6163 -2.45,-1.523 -2.3597,-2.8084 0.027,-0.3802 0.4619,-0.2322 0.7084,-0.3371 0.9676,-0.4117 1.2278,-0.4396 1.5152,0.3571 0.3924,1.0879 1.5998,1.5166 2.5358,2.0207 0.9758,0.5258 1.6151,1.4946 2.7012,1.8354 0.2257,0.071 0.5303,0.3372 -0.077,0.5112 -0.5338,0.1529 -0.4275,0.7541 -0.2802,1.1134 0.3371,0.822 0.053,1.7403 0.5122,2.5515 0.5913,1.0455 -1.6996,1.6761 -0.088,3.6771 0.4207,0.5222 0.8925,1.0237 0.98,1.7329 0.071,0.5716 0.9542,0.56 0.5028,1.26 -1.3068,2.0264 1.8453,3.8985 0.523,4.4874 -0.3128,0.1392 -1.9139,1.8478 -0.3735,2.5246 2.1107,0.9269 -0.5646,1.4471 0.2946,2.8814 0.22,-0.1838 0.05,-0.4326 0.1039,-0.6485 0.076,-0.3062 0.2717,-0.5123 0.4547,-0.7493 1.016,-1.3159 -0.9529,-1.6692 -1.1799,-2.2268 -0.1758,-0.4317 0.2041,-0.7952 0.3944,-0.8597 0.3998,-0.1352 0.1908,0.2826 0.2124,0.4698 0.022,0.1891 0.158,0.382 0.2724,0.3481 0.2706,-0.08 -0.036,-0.209 -0.035,-0.3345 0,-0.4976 -0.2324,-1.0106 0.3514,-1.4042 1.0544,-0.7106 -1.7365,-2.5381 -0.5987,-4.3162 0.2581,-0.4033 0.3304,-0.9475 -0.2158,-1.2797 -0.4022,-0.2446 -0.3044,-0.6632 -0.3686,-1.0099 -0.022,-0.1196 0.2712,-0.08 0.4229,-0.1087 0.9623,-0.1799 0.8376,1.6162 1.0267,1.7498 0.02,-0.186 0.027,-0.3742 0.061,-0.5577 0.075,-0.4077 -0.4386,-0.9689 -0.1506,-1.1036 0.4538,-0.2119 0.557,0.5262 0.9138,0.7407 0.3506,0.2106 0.8844,0.3198 0.6586,0.9203 -0.183,0.4866 -0.5706,0.7001 -1.0926,0.6432 -0.9969,-0.1087 -0.5573,2.0764 0.061,2.3726 -0.011,-0.4274 -0.404,-0.6674 -0.069,-1.2151 -0.6486,-0.3109 0.085,-0.9244 -0.01,0.01 0.2247,0.091 0.1243,0.3338 0.225,0.4825 0.4047,-0.4774 -0.5453,-1.136 0.2422,-1.3358 0.3829,-0.097 0.7534,-0.5595 1.0622,0.096 0.034,0.071 0.075,0.2177 0.2041,0.1533 0.1105,-0.055 -0.2506,-0.5469 -0.2341,-0.6409 0.2444,-1.3871 -1.6572,-2.9262 -2.8738,-2.6783 -1.3003,0.2649 -1.9906,-1.6535 -1.3951,-2.6039 0.4418,-0.7054 0.447,-1.3719 0.1489,-2.1415 -0.2496,-0.6449 -0.074,-1.3935 -0.3252,-2.0614 -0.044,-0.1171 0.023,-0.2724 0.109,-0.2643 0.6048,0.057 1.2749,-0.466 1.8125,0.1823 0.5865,0.7073 4.3812,0.3815 5.6233,3.8492 0.264,0.7371 1.086,0.9344 1.638,1.387 1.1,0.9019 -1.1616,1.4602 0.5454,2.7213 1.2799,0.9456 2.159,0.8643 1.9384,1.3 -0.2042,0.4034 -0.032,0.7685 0.1378,1.0741 0.9974,1.7955 0.6684,3.6548 0.078,5.4108 -0.3704,1.1016 -0.07,3.62 1.3534,3.5626 0.5925,-0.024 0.9145,0.2596 1.0709,0.8851 0.8223,3.2915 2.04,0.8395 2.308,2.639 0.4435,2.9773 1.7967,0.8474 2.8601,3.0459 0.2292,0.4738 0.5875,0.69 1.026,0.6093 1.4334,-0.2637 2.511,0.7832 3.8149,0.9739 0.1528,0.023 1.4997,1.6719 2.4564,0.086 0.157,-0.2603 -0.2759,-0.1137 -0.4369,0.025 -1.2796,1.1051 -1.1772,-0.2373 -2.1903,-0.5071 -1.8149,-0.4831 -1.7853,-1.261 -2.9617,-0.9995 -1.7891,0.3976 -1.4765,-1.9535 -2.8069,-1.7461 -0.9133,0.1425 -1.3064,-1.0675 -1.2318,-1.8324 0.1777,-1.8201 -1.5829,0.2999 -2.2578,-2.4802 -0.1604,-0.6607 -0.3122,-1.2143 -1.0408,-1.4074 -0.259,-0.069 -0.3119,-0.3805 -0.2603,-0.4904 0.4234,-0.9037 -0.2098,-3.5762 0.9196,-2.92 1.4969,0.8699 2.4521,-0.1796 2.8248,0.5767 0.7205,1.4619 -1.1749,1.546 -0.3868,3.0043 0.1468,0.2717 0.3887,0.299 0.1856,-0.042 -0.2712,-0.4551 -0.2445,-0.8483 0.1556,-1.2357 0.3613,-0.3494 0.3739,-0.8885 0.6157,-1.3089 l 0.013,-0.011 c -0.1836,-0.8153 -0.7418,-1.137 -1.5034,-0.973 -1.2591,0.2711 -2.1224,-0.6361 -3.1692,-0.9829 -0.3765,-0.1248 -0.038,-0.4194 0.064,-0.5868 1.3729,-2.2375 -1.1561,-2.9015 -0.7582,-4.4313 0.1409,-0.5416 0.015,-1.141 -0.8042,-1.1962 -0.5497,-0.037 -0.9747,-0.4223 -1.4372,-0.6808 -1.1002,-0.6147 1.4345,-1.3152 -0.6216,-2.8628 -2.4462,-1.8414 -1.151,-2.969 -3.681,-3.9304 -1.0701,-0.4067 -1.996,-1.177 -3.234,-1.1885 -0.983,-0.01 -0.218,-2.0861 -1.9335,-4.3631 -0.7481,-0.9928 0.5826,-1.0429 -0.9646,-2.182 -1.4808,-1.0905 1.2129,-1.7378 -0.8421,-3.357 -1.5767,-1.2425 -1.8573,-0.4106 -2.8401,-1.3297 -1.8764,-1.7549 -2.5677,-0.4828 -2.9979,-2.6103 -0.1887,-0.933 2.2086,-1.1192 1.1017,-3.185 -1.3953,-2.6044 -4.2528,-0.9671 -4.009,-3.9468 0.089,-1.0873 -1.6234,-0.772 -1.2328,-1.6813 0.4038,-0.9399 -0.4421,-1.1744 -0.4068,-3.6097 0.021,-1.4131 -1.1165,-2.3154 -2.4286,-1.7022 -0.6992,0.3269 -1.2228,0.4411 -1.663,-0.3886 -0.1926,-0.3632 -1.4598,-0.9498 -0.9165,-1.8599 2.6625,-4.46 -2.1101,-4.7676 -1.7423,-7.0182 0.2421,-1.4814 -3.4891,-4.2276 -1.4922,-5.8432 1.0085,-0.816 -0.2093,-0.9384 0.055,-1.8432 0.3933,-1.3486 -0.6244,-1.1836 0.5931,-2.5493 0.2656,-0.298 0.6992,0 1.0142,0.1513 1.5624,0.7544 2.4477,0.1229 2.4864,1.0302 0.037,0.867 0.4462,1.6407 0.4125,2.5517 -0.081,2.1731 0.5006,2.4356 1.6212,3.4527 -0.053,-0.523 -0.5372,-0.7153 -0.8147,-1.066 -1.2462,-1.5749 1.4088,-1.7144 0.8696,-0.4627 -0.522,1.2112 1.1456,1.537 0.332,2.0425 0.1598,0.242 -0.011,0.7488 0.5415,0.6767 -0.24,-0.6562 -0.068,-1.4447 -0.6792,-1.9896 -0.344,-0.3065 0.3742,-1.0041 0.4822,-0.1528 0.058,0.4572 0.1412,0.8975 0.597,1.1459 0.4774,0.071 0.5185,0.4362 0.3664,0.877 -0.1633,0.4732 -0.5036,0.1783 -0.7815,0.1026 -0.014,0.5189 0.8882,0.2234 0.7578,0.8609 -0.088,0.4297 -0.5658,0.6332 -0.6384,1.0047 -0.4005,2.0493 0.2405,2.2188 1.0134,2.3071 0.6457,0.074 0.8928,0.6575 1.6407,0.5262 -0.1529,-0.1213 -1.3742,-0.8008 -1.8671,-0.8682 -1.5221,-0.2086 0.4186,-3.2696 0.4973,-3.5769 -0.5024,-0.1995 0.079,-1.3717 0.013,-0.2004 1.186,-0.7468 0.7043,1.4111 0.9528,2.1698 0.05,0.153 0.3122,0.4389 0.2265,-0.044 -0.2796,-1.572 0.3432,-2.108 -1.0309,-3.0264 -4.167,-2.7847 1.0133,-2.9204 -3.47,-6.0514 -1.3591,-0.9492 0.088,-0.9367 -2.1944,-1.4186 -7.2194,-1.524 -4.5825,-4.0168 -5.5749,-4.4283 -0.7216,-0.2992 -1.067,-1.0495 -1.7269,-1.4416 -0.9365,-0.5564 0.5971,-1.44996 0.7374,-3.48626 0.03,-0.4332 0.9144,0.021 0.8121,0.2833 -0.331,0.8482 0.2208,0.2004 1.5543,4.74506 0.3489,1.189 1.2915,1.6742 2.4899,1.4042 1.6847,-0.3793 4.4023,2.5723 4.6346,2.9605 0.5925,0.9897 1.6863,-0.6334 2.7864,1.39 0.7679,1.4123 2.5632,2.1913 4.0413,1.6999 0.4225,-0.1405 0.6477,-0.053 0.8921,0.2608 1.5484,1.9863 2.0948,0.1471 1.7895,2.6709 -0.06,0.4984 -1.5129,1.1845 -0.4006,2.0785 1.2275,0.9864 1.0463,3.1038 2.8689,3.0828 0.2797,0 0.3837,0.3984 0.6979,0.2634 -0.6832,-0.8666 -1.9773,-0.3774 -1.87,-1.2494 0.059,-0.477 -1.3592,-2.1651 -1.5058,-2.3181 -0.9356,-0.9757 0.838,-0.8856 0.6879,-2.87 -0.088,-1.1609 1.8255,0.3559 1.8481,0.8205 0.072,1.4701 0.5744,3.1372 2.0194,2.8897 2.1192,-0.3631 1.1172,1.1207 1.9227,1.6659 0.2381,0.1611 0.3086,0.4759 0.2027,0.6448 -0.5277,0.8427 0.1948,1.3501 0.5836,1.787 2.6386,2.9656 1.7493,1.057 1.5722,3.3931 -0.014,0.1875 -0.2888,0.262 -0.1707,0.4793 0.1853,-0.115 0.3922,-0.2517 0.4105,-0.4675 0.083,-0.9797 0.7713,-1.3533 -0.036,-2.0871 -2.0388,-1.8539 -2.3977,-2.3497 -2.0232,-3.0667 0.095,-0.1818 0.1169,-0.5508 -0.08,-0.691 -0.646,-0.4594 -0.33,-1.5811 -0.8159,-1.8442 -0.9507,-0.5147 0.5638,-0.7043 0.5823,0.3298 0.01,0.5078 0.4663,1.1489 0.8592,1.2897 0.075,-0.3311 -0.257,-0.4102 -0.3946,-0.6016 -0.1099,-0.1529 -0.6222,-1.6543 0.047,-1.2937 0.292,0.1574 0.5775,0.2049 0.8873,0.082 0.026,-0.03 0.052,-0.061 0.078,-0.091 0.7772,-0.4941 1.484,-0.3164 1.6641,-1.6 -0.4244,0.4019 -0.4185,1.1872 -1.8974,1.2695 -4.7459,0.2636 -4.6233,0 -4.9295,-1.3767 -0.4185,-1.8757 -0.6812,-2.2645 -2.5712,-2.5811 -2.0733,-0.3472 -1.4824,-2.1502 -3.1391,-1.4169 -0.866,0.3835 -2.7146,-0.044 -3.7069,-2.1145 -0.7974,-1.6638 -2.3697,0.087 -2.8377,-1.5577 -0.1632,-0.5738 -0.8592,-0.3735 -1.1331,-0.8197 -0.5641,-0.9193 -1.5341,-1.279 -2.4615,-1.6913 -1.0211,-0.4539 -2.4644,0.6761 -2.8715,-0.9723 -0.3352,-1.3571 -0.7689,-2.67076 -1.4096,-3.91576 -0.4692,-0.9116 1.16,0.01 -2.0043,-2.9111 -1.3965,-1.2872 0.522,-1.4406 -0.6873,-3.1216 -1.1663,-1.6212 -2.219,-0.9322 -2.2778,-3.4402 -0.059,-2.51 -2.2262,-1.3093 -1.8345,-3.3044 0.3994,-2.0341 -0.5585,-2.8826 -0.5585,-2.8826 0.8966,-1.00439 -0.2619,-2.3147 0.6454,-3.46142 0.8572,-1.08331 0.1732,-2.83922 -0.8197,-3.90752 -2.2863,-2.46027 -0.1773,-1.45922 -1.5902,-5.09202 -0.5148,-1.32364 0.1926,0.4242 0.272,-2.75287 0.028,-1.11495 1.385,0.92413 1.3521,1.67768 -0.031,0.7144 0.6689,1.21551 1.042,1.81006 0.4185,0.66668 0.4295,1.46532 0.7894,2.14561 0.1677,0.31705 -1.7523,1.65078 0.1038,2.98081 1.2751,0.9139 -0.7799,3.50238 1.3422,4.665 0.4631,0.25366 0.3266,0.7176 0.2163,2.22652 l -0.01,-0.008 c 0.2229,-0.0922 0.3452,-0.27698 0.3294,-0.49975 -0.069,-0.9666 0.4639,-1.85971 0.2942,-2.85325 -0.085,-0.49628 0.7367,-1.06281 1.3308,-1.0324 l -0.011,0.0127 c -0.5088,-0.41964 -0.5557,-1.05741 -0.7513,-1.62169 -0.4503,-1.30069 1.8834,1.00377 4.1956,1.17319 0.3302,0.0239 0.3785,0.26613 0.4251,0.49271 0.1995,0.96895 -0.2108,-0.2171 1.5705,2.01523 1.9934,2.49829 -0.3721,6.75101 2.2158,8.23331 -1.581,-2.6759 -0.4733,-4.8072 -1.2922,-7.56738 -0.1197,-0.40359 -1.5025,-1.17623 -0.5091,-1.93222 1.5768,-1.19979 2.4269,2.05541 4.6198,3.20964 0.8073,0.42499 1.2039,1.46236 1.9273,2.12796 0.138,-0.1653 -1.3554,-1.98089 -1.1224,-2.1602 0.079,-0.0613 0.2927,-0.056 0.3736,0.009 1.5977,1.2817 2.3462,-0.42959 2.9392,2.3095 0.2338,1.0796 1.1565,1.6783 1.5606,2.6145 0.076,0.1758 0.9211,0.3371 1.1765,0.1579 -0.2489,-0.056 -0.9658,-0.1805 -1.0305,-0.3449 -0.335,-0.8518 -1.1702,-1.3994 -1.358,-2.3536 -0.063,-0.3202 -0.617,-2.07202 -1.1677,-1.99956 -1.2912,0.16988 -2.1857,-0.87612 -3.3868,-1.07839 -0.6763,-0.1139 -1.4218,-0.69113 -1.7698,-1.52431 -0.2808,-0.6725 -1.0655,-0.92981 -1.4809,-1.55538 -0.3922,-0.59084 -1.7281,0.71671 -2.0363,0.20762 -0.3069,-0.50693 -1.3488,-0.62116 -0.8628,-1.56148 l 0.011,0.005 c -0.4031,0.28636 -0.5409,0.0601 -0.6427,-0.31034 -0.4042,-1.47096 -1.552,-2.23656 -1.6711,-2.87161 -0.081,-0.43419 -0.331,-0.77771 -0.6312,-1.08852 0.5468,0.0258 1.0024,0.34981 1.5228,0.466 1.2851,0.28693 -0.7569,1.57523 1.0516,2.22342 0.027,-0.0328 0.053,-0.0654 0.08,-0.0981 -0.4163,-0.34305 -0.8761,-0.61627 -0.5059,-1.32209 0.2733,-0.52087 0.5733,-0.47591 0.8597,-0.16463 0.5927,0.64434 1.4269,0.93802 2.0617,1.53989 0.4505,0.42729 1.1842,0.28421 1.7701,0.0607 1.5355,-0.58554 0.9563,1.09012 1.2058,2.07648 0.6152,2.43197 2.5403,1.18788 3.0084,1.62432 0.9898,0.92296 2.6009,0.36844 2.8221,2.00989 0.3326,2.46749 3.7391,4.62859 7.1051,7.21449 0.6919,0.5316 0.8899,1.5296 1.8745,1.7848 0.3944,0.1021 0.2993,0.6832 0.1054,0.9985 -0.5677,0.9237 0.3789,1.5311 0.4038,1.9072 0.06,0.9024 0.5751,1.2265 1.4081,1.16 0.2356,-0.019 0.6204,0.2572 0.6169,0.1012 -0.01,-0.4552 -1.4254,-0.1908 -1.3841,-0.5462 0.029,-0.2474 0.2713,0.024 0.441,-0.031 1.1938,-0.3862 1.3984,-0.9319 2.3997,-1.9061 0.9039,-0.8795 1.1305,0.61 2.3427,0.1939 0.9399,-0.3228 1.3161,-0.1107 1.5156,0.8599 0.098,0.4762 -0.1046,1.2886 -0.077,1.352 0.9602,-2.1049 -0.4077,-2.7861 -1.5199,-2.505 -0.2877,0.073 -0.6003,0.103 -0.8526,-0.1143 -1.319,-1.1362 -1.776,0.615 -2.6617,0.4584 0.4569,0.3931 0.1081,0.5342 -0.2134,0.6838 -0.307,0.452 -1.7194,1.211 -1.2741,-0.1122 0.1032,-0.3066 0.3065,0.03 0.4606,-0.029 -0.4788,-0.4847 -0.1912,-1.331 -0.8278,-1.747 -0.1276,-0.083 -0.2882,-0.2307 -0.1742,-0.3948 0.4162,-0.5989 1.9058,1.4648 2.0452,1.6177 -0.1952,-0.6615 -0.4655,-1.2657 -1.1271,-1.6046 -1.7515,-0.8972 -0.8467,-1.4214 -2.2505,-1.8434 -1.696,-0.51 -1.0162,-2.1085 -2.8834,-2.417 -0.8129,-0.1343 -2.2102,-1.7663 -2.2225,-2.5757 -0.012,-0.8149 -0.7594,-1.57688 -1.5754,-1.56585 -0.4642,0.006 -0.6869,-0.0783 -0.6227,-0.63796 0.064,-0.55343 -0.9176,-1.76942 -1.4739,-1.95958 -2.5312,-0.865 -2.1623,-1.21279 -3.0736,-1.04952 -2.1931,0.39322 -2.0878,-2.78343 -1.4653,-2.79638 1.1012,-0.023 0.935,1.45138 1.1352,1.5451 0.039,-0.44733 0.01,-1.09139 -0.2095,-1.22364 -1.0451,-0.6364 -1.8596,-1.84901 -3.4023,-1.30679 -1.5687,0.55128 -1.2242,-0.78743 -1.6402,-0.77644 -0.9359,0.0249 -1.3606,-0.96665 -2.2586,-1.09289 -1.7289,-0.24324 0.8158,-2.95927 -2.0885,-4.0164 -1.1739,-0.42729 -0.8984,-1.14231 -1.9676,-1.09749 -0.5495,0.023 -0.6231,-0.64242 -1.0416,-0.80615 -1.045,-0.40876 0.2845,-1.58147 -0.809,-1.98615 -0.5149,-0.19048 -1.1215,-1.47099 -0.9491,-1.61314 0.2864,-0.23592 0.4122,0.34535 0.6819,0.44686 3.3333,1.25507 4.5924,-1.13377 6.8903,0.74922 1.452,1.18971 2.0036,-1.12057 2.2604,-0.25975 0.3663,1.22776 1.1868,1.68443 2.4003,1.22791 1.2366,-0.46517 1.205,-0.0254 2.4879,0.0983 0.1058,0.0103 0.2787,-0.0633 0.3135,-0.0174 0.5798,0.76772 1.5215,1.13752 2.0904,1.89444 0.1542,0.20513 0.193,0.48844 0.4956,0.56015 1.0142,0.24047 4.9908,1.92607 5.4669,2.85616 0.2862,0.55921 0.5973,1.05624 1.097,1.43172 l -0.011,0.0103 c 0.052,-0.10564 0.1044,-0.21142 0.1566,-0.31706 z m -23.0844,7.93735 c -0.835,0.96618 -1.4089,-2.49021 -0.9908,-3.07556 0.1025,-0.14342 0.2267,-0.20105 0.2986,-0.0474 1.295,2.76751 0.1923,1.44988 0.7012,3.13962 0.1876,-1.42741 0.5261,0.19888 0.1542,0.41091 -0.054,-0.14248 -0.1088,-0.28496 -0.1632,-0.42757 z m -87.1458,-135.2454 c 0.4429,0.84952 0.052,1.84949 0.4068,2.66451 0.2856,0.65598 -0.063,1.25282 0.1176,1.8675 0.052,0.17721 -0.1384,0.48966 -0.435,0.49473 -0.5164,0.009 -0.095,-1.71358 -0.3522,-2.07714 -0.9125,-1.28769 0.2377,-1.96967 0.2974,-3.49065 0.01,-0.15758 0.013,-0.31508 0.02,-0.47253 0.8975,0.34643 0.099,0.87218 -0.054,1.01358 z m 89.9266,124.69231 c -1.4161,-0.30331 -1.7979,0.52866 -3.2151,-0.79513 -0.5352,-0.49989 -0.1916,-1.20387 0.031,-1.21579 0.8367,-0.0455 0.6535,0.96294 1.4647,0.98467 0.7879,0.0211 1.2117,0.57587 1.7087,1.03878 1.4243,0.29734 1.6942,0.75598 1.3204,2.21839 -0.1408,0.55067 0.5069,0.81775 0.1743,1.0905 -0.1962,0.16083 -0.4888,-0.10733 -0.7417,-0.17186 -0.495,-0.12642 -0.5335,-0.50477 -0.5732,-0.93436 -0.068,-0.73796 0.2137,-1.50324 -0.169,-2.2152 z m -92.6799,-106.14838 c -0.4195,3.06655 2.0047,2.01125 1.2504,3.3561 -1.3303,2.37233 -0.4743,2.47876 -1.6043,2.90789 -0.7338,0.27866 -0.7647,-0.41692 -1.3541,-0.65293 -1.1302,-0.45301 -0.1482,-2.22225 -0.5309,-3.57334 -0.391,-1.38094 1.1876,-0.9682 2.2522,-2.02561 -0.2654,-2.55305 1.3349,-3.05313 1.2172,-2.24702 -0.131,0.89832 -0.22,1.82076 -1.2305,2.23491 z m 23.7035,29.48991 c -0.2851,-0.006 -0.72,0.21203 -0.815,-0.0625 -0.4817,-1.39225 2.7815,-1.77477 0.1275,-4.6025 -2.2752,-2.42418 -1.6978,-3.0901 -2.869,-3.23704 -1.1533,-0.14478 1.0215,-1.711 -0.3816,-2.81581 -0.7596,-0.5982 -1.1776,-1.42576 -0.097,-3.35352 1.1039,-1.96906 -1.303,-2.36913 -0.1565,-3.1994 1.3721,-0.9934 0.8734,-1.30511 2.144,-3.07082 1.1855,-1.64741 1.3806,1.76402 4.2191,2.54418 2.9235,0.80366 1.995,3.56906 3.51,6.59403 1.4576,2.91 1.7468,3.99542 3.1779,4.79848 0.1532,0.0859 0.3693,0.29382 0.3511,0.41443 -0.1739,1.15822 0.6647,1.96371 1.0107,2.93247 0.6722,1.88332 1.9124,1.40314 3.4088,2.26519 0.5871,0.33831 0.1268,0.33587 0.5108,2.50748 0.3883,2.19591 0.3578,1.53857 -0.5861,4.06271 -0.9784,2.61617 0.8981,1.99459 0.1133,4.48846 -0.3203,1.01785 -0.4842,2.18658 0.071,3.07036 0.6188,0.98499 0.6907,2.14795 1.3255,3.08569 0.1636,0.24155 -0.036,0.31386 -0.1585,0.45282 -0.66,0.75059 -0.6326,2.09394 0.2295,2.55882 0.9079,0.48952 0.6356,1.17366 0.6156,2.96504 -0.024,2.09812 1.0426,2.30982 4.0087,5.41522 0.5318,0.55663 0.9927,1.08557 1.724,1.35955 3.3547,1.25615 1.7612,4.6505 5.3126,5.34651 0.119,0.0235 0.4551,0.0902 0.3443,0.18411 -0.4482,0.38003 -0.3712,1.18186 -1.1462,1.30158 -3.8045,0.58812 1.1838,6.56743 1.4869,8.18288 0.2033,1.08359 0.2516,2.23749 0.8713,3.21667 0.1922,0.30359 -0.091,0.63932 -0.4063,0.30819 -0.9303,-0.97552 -3.5145,-1.1715 -4.1121,-3.09194 -0.332,-1.06689 -0.7173,-0.16083 -0.9535,-1.21078 -0.2287,-1.0171 -1.0955,-1.82949 -1.857,-1.71235 -0.6269,0.0964 -1.2537,-0.0972 -1.8961,0.15317 -0.3799,0.14797 -1.0117,0.067 -1.2285,-0.3874 -0.7843,-1.64417 -2.5263,-2.73372 -2.7165,-4.71564 -0.054,-0.56273 -2.0028,-1.52844 -1.0304,-3.20504 0.3622,-0.62435 -0.84,-3.94882 -1.6458,-4.7118 0.3545,-1.62586 -1.73,-1.80518 -1.9332,-5.6829 -0.036,-0.68916 -1.3052,-1.42022 -1.8998,-1.0836 -1.3774,0.77982 -0.9929,-2.09746 -1.7912,-2.252 -0.9792,-0.18945 -0.9985,-1.26934 -1.6844,-1.7147 -0.2496,-0.16205 0.6601,-3.06134 -2.6893,-3.90245 -1.6174,-0.40622 0.4799,-0.7635 0.9931,-2.33737 0.4301,-1.31899 2.2253,-1.78528 2.1881,-3.36281 -0.015,-0.64481 1.2599,-3.58235 -1.2273,-4.59823 -0.8897,-0.36351 0.2954,-1.5306 -0.825,-2.58238 -1.0297,-0.96604 -2.2792,-1.28032 -3.6379,-1.31505 z m 57.3242,65.87148 c 0.01,-1.18463 0.5782,-2.02054 0.7683,-2.96959 0.1104,-0.55081 1.9426,0.95698 0.5337,2.05954 -0.931,0.72863 -1.0894,1.40159 -0.7854,2.56464 0.383,1.46579 2.0977,1.35541 1.731,1.98295 -0.5077,0.86838 -1.9165,3.11353 -0.064,4.31665 1.5717,1.02076 -0.049,1.94475 0.1348,2.84167 0.1506,0.73594 0.7305,1.40248 0.379,2.23477 -0.027,0.0639 0.4733,0.57831 0.3859,0.82018 -0.8453,2.33671 2.6294,3.42289 2.1347,4.48861 -0.2406,0.51838 0.1871,1.02822 -0.1235,1.48719 -0.5513,0.8145 -0.8694,1.64463 -0.3541,2.61128 0.2732,0.51214 -1.0946,0.73562 -0.29,1.61174 1.3391,1.45833 -0.5762,3.87833 1.9548,4.99023 0.8453,0.3714 -0.14,2.8771 2.3403,4.143 1.6805,0.8576 -0.3877,2.2243 0.6137,3.2496 3.3574,3.4378 -2.6551,3.9258 1.9311,7.11136 1.0797,0.75 -0.1171,1.0957 0.9573,2.234 0.6334,0.671 1.2277,1.3872 2.2473,1.5199 0.343,0.045 0.4727,0.2938 0.1999,0.6517 -1.1487,1.5078 0.4003,3.5489 -0.5827,4.2431 -0.4485,0.3169 0.2053,1.6928 -1.3173,0.9342 -0.9211,-0.4589 -0.9522,-1.1693 -1.7468,-1.3404 -1.0364,-0.2231 -0.1213,-2.25 -1.5219,-3.4135 -0.1677,-0.1393 -0.1353,-0.3228 -0.058,-0.5183 0.9517,-2.4124 0.2589,-6.79046 -1.8659,-8.32516 -3.6901,-2.6653 -3.5254,-3.8024 -5.0365,-3.7663 -4.2143,0.1006 -4.1607,-9.3213 -7.1303,-12.44064 -2.4381,-2.56084 0.4991,-8.40349 3.1104,-8.85341 2.2542,-0.38843 0.028,-3.41969 0.2929,-5.28752 0.4172,-2.93571 2.7633,-2.72551 1.7896,-5.66348 -0.4048,-1.22161 -0.1122,-2.53944 -0.6283,-3.51801 z m -41.1315,-14.60092 c 1.0359,-0.54194 1.7673,0.89034 1.3628,2.0004 -0.306,0.83929 -0.4075,0.0734 1.4501,3.53786 0.6116,1.14062 0.7213,1.105 -0.5454,1.61653 -0.459,0.18528 -0.6216,0.69296 -0.4788,0.8879 0.4161,0.56808 0.05,1.18126 0.2667,1.76938 0.1993,0.54058 0.1311,1.22744 -0.3345,1.76083 -0.572,0.65542 -0.5113,2.5217 -1.2561,1.00992 -0.112,-0.22704 -0.3211,-0.26355 -0.4915,-0.38341 -1.7847,-1.25498 0.1435,-1.92382 -1.2558,-2.5324 -0.3276,-0.14248 -0.4508,-0.32883 -0.4115,-0.67878 0.219,-1.95316 -0.4174,-3.7742 -1.1082,-5.5164 -0.4339,-1.09444 -0.348,-2.29879 -0.939,-3.32448 -0.048,-0.083 0.081,-0.2513 0.074,-0.37745 -0.085,-1.6781 1.0622,-3.58737 -0.1865,-4.10852 -1.1195,-0.46723 -0.1662,-1.11509 -0.4759,-1.47358 -0.909,-1.05272 0.016,-2.05147 0.077,-3.07068 0.014,-0.23192 0.2528,-0.33559 0.4529,-0.41645 0.2745,-0.11099 1.0005,1.73146 1.0039,2.07681 0.01,0.81821 0.4128,1.32589 0.8167,1.8469 1.4138,1.82429 -0.3772,2.94716 -0.2034,3.81001 0.1672,0.82933 1.1843,1.57799 2.1819,1.56561 z m -33.9676,-124.84061 c -0.072,-0.0784 -0.189,-0.16358 -0.249,-0.27854 -2.6065,-5.00595 1.9327,-3.44126 -1.0626,-7.39128 -0.4175,-0.55051 -0.6479,-1.09537 -0.7313,-1.80915 -0.4093,-3.50164 -1.5861,-3.22279 -1.2345,-4.9957 0.2926,-1.47587 0.095,-2.81706 -0.8136,-4.02356 -0.1546,-0.20501 -0.076,-0.40054 -0.01,-0.52223 0.5077,-0.9142 0.668,-1.96049 1.097,-2.89059 1.3257,-2.87424 -1.1033,-2.59738 -0.8098,-4.11177 0.2769,-1.42833 -1.6607,-2.43578 -1.9813,-4.34001 0,0 2.0189,2.23108 3.0951,2.87637 1.987,1.19121 1.2426,1.7035 1.8898,2.32571 1.2352,1.18801 -0.618,2.41025 -0.4548,4.68506 0.1377,1.9212 0.6448,3.70114 2.0169,5.13986 0.8257,0.86575 -0.4426,0.59515 0.2551,3.22188 0.3946,1.48535 -3.3168,3.93291 -0.323,6.49527 1.0995,0.94096 -1.1568,3.28838 -0.5381,5.46229 0.033,0.11649 0.064,0.20347 -0.1472,0.15639 z m 10.4321,36.36477 c 1.5789,1.68669 2.4182,3.14882 4.4635,2.197 0.7647,-0.35591 1.3157,-0.0859 1.3929,0.78241 0.082,0.91756 0.4522,1.75107 0.4832,2.71753 0.026,0.80536 0.061,4.48738 -0.7171,4.128 -4.6478,-2.14655 -4.4736,-1.92199 -4.7028,-2.59951 -1.4559,-4.30393 -5.7878,-3.12085 -3.9107,-4.93382 1.8955,-1.83067 1.5376,-5.58825 1.6402,-5.7411 0.5198,-0.77447 0.5523,-1.61422 0.3678,-2.49039 -0.093,-0.44363 0.3374,-0.51566 0.5572,-0.69817 0.2791,-0.23132 0.3217,0.16359 0.4465,0.28847 0.9701,0.97247 -0.7632,2.3864 -0.4567,3.13427 0.5259,1.2837 -0.4727,2.24468 0.436,3.21531 z m -18.6097,14.8208 c -0.259,-1.56486 1.1154,1.06154 2.7736,-0.31922 0.4582,-0.38144 0.9216,-0.74556 0.8241,-1.46959 -0.032,-0.23957 0.2386,-0.75415 0.3546,-0.63157 0.449,0.47483 1.0922,0.55268 1.5802,0.9506 0.8983,0.73289 1.4069,1.89078 2.5986,2.31103 0.3117,0.10991 0.3865,0.58521 0.2048,0.86392 -0.9548,1.46547 0.3082,2.72871 -0.5694,3.2913 -1.7598,1.1279 -0.075,1.58621 -0.3627,2.45792 -0.3378,1.02414 -0.094,1.591 0.8609,2.12299 0.7266,0.40467 0.8405,1.26094 0.2033,1.78223 -1.5852,1.29689 -0.8841,-2.89727 -2.55,-3.40054 -0.1414,-0.0427 -0.2116,-0.29922 -0.3297,-0.44475 -2.1638,-2.66526 -1.0743,-0.67311 -3.4063,-2.63541 -1.6955,-1.42684 -2.0227,-0.57559 -2.0305,-1.51258 -0.01,-1.12959 0.2435,-2.27344 -0.1515,-3.36633 z m 84.3451,126.48702 c 0.1529,-0.037 1.3666,-0.018 1.6549,0.575 0.4362,0.8965 1.4365,0.8482 1.8252,1.5343 1.0622,1.87456 2.5205,0.2992 2.7336,4.92396 0.1238,2.6867 -1.0463,2.3963 -0.3684,3.533 0.5887,0.9871 0.5108,1.1621 0.3579,1.0204 -0.2951,-0.2735 -0.921,-0.041 -0.9795,-0.6815 -0.077,-0.8382 -2.0144,-1.9762 -1.3091,-3.548 0.06,-0.1337 0.061,-0.3496 -0.01,-0.476 -0.4403,-0.8227 -0.2334,-1.8715 -0.9559,-2.6087 -0.8619,-0.8795 0.8873,-1.90606 -2.9522,-4.27246 z m 34.2781,55.93906 c -10.728,-6.4 -3.3129,-4.4819 -2.83,-7.7818 0.084,-0.5768 0.6612,-0.3056 0.7114,0.071 0.1056,0.793 -0.9116,1.3315 -0.3659,1.8776 1.0657,1.066 2.4478,4.9898 2.7272,5.4874 0.094,0.1665 0.1732,0.3849 -0.2427,0.3459 z M 2568.337,778.7479 c 0.5134,-1.347 0.597,-1.60551 0.9243,-1.57326 0.3516,0.0347 0.6734,0.1856 0.8245,0.63108 0.7533,2.22191 2.4297,1.16935 1.9359,3.98825 -0.4128,2.35613 2.8147,7.1002 1.9277,6.41761 -3.4298,-2.63911 -1.43,-3.66751 -3.2715,-5.0804 -1.4223,-1.09108 -1.7751,-2.77777 -2.3409,-4.38328 z m 97.6148,191.09583 c 1.3904,-0.26572 0.6258,0.60478 0.8523,1.6185 0.2293,1.02658 -0.6604,0.8413 -1.0111,0.46305 -0.8622,-0.92977 -1.4687,-0.10517 -3.254,-1.81725 -0.401,-0.38449 -0.5049,-0.98467 -0.9856,-1.26211 -1.1174,-0.64486 0.4631,-2.73959 -1.2897,-3.72882 -0.5297,-0.29889 -0.03,-1.26418 0.2158,-0.90564 0.3392,0.49346 0.8989,0.40725 1.3767,0.54302 1.8542,0.5265 0.8266,1.14442 1.2639,1.60597 0.7711,0.81389 -0.7673,1.84934 0.3941,2.62945 0.7911,0.53142 1.5139,1.41182 2.4376,0.85383 z m -36.75,12.99266 c 0.3383,-0.70169 0.8509,-0.59699 1.4667,-0.55583 1.0463,0.0698 0.6192,1.73408 1.5039,2.15738 1.5165,0.7257 -0.5317,1.2524 0.2479,2.7878 0.119,0.2341 0.6679,0.3874 0.3636,0.6368 -0.3176,0.2602 -0.9,-0.495 -1.1355,-0.845 -0.7579,-1.1267 -1.1357,-0.092 -1.9536,-0.3957 -1.5422,-0.5729 -1.2074,-2.3036 -0.493,-3.78545 z m 45.8936,44.68581 c 0.4681,-0.01 0.8628,0.097 1.1814,-0.1925 0.1336,-0.1212 0.3029,-0.1965 0.4414,-0.1191 0.4078,0.2287 -0.4296,0.4287 0.1203,1.0636 0.7715,0.8903 -0.625,1.0073 0.2825,1.8682 0.9559,0.9067 -0.639,1.4563 0.465,2.4674 0.4876,0.4461 -1.0741,1.0406 -1.8556,-0.1483 -0.4198,-0.6389 -0.6331,-1.4224 -1.4191,-1.8001 -0.8485,-0.4077 0.5612,-1.0602 0.1347,-2.2802 -0.2723,-0.7786 -0.045,-1.042 0.6494,-0.859 z m -54.4409,-66.14358 c -0.9997,1.09646 -0.6222,1.89402 -0.117,2.22741 1.2565,0.82924 0.7093,1.8064 -0.3663,1.99322 -0.7089,0.12305 -1.1585,0.52345 -1.5943,1.01616 -0.063,0.071 -0.077,0.30913 -0.2631,0.1743 -0.074,-0.0537 -0.1529,-0.21649 -0.1232,-0.27993 0.4392,-0.93925 -0.059,-2.09502 0.7065,-2.96856 0.4272,-0.48751 -0.133,-0.56456 -0.232,-2.65742 -0.018,-0.37778 0.046,-0.75613 -0.2602,-1.06511 -0.1513,-0.1529 -0.2102,-0.51017 0.3223,-0.32654 0.847,0.29228 3.7863,-0.15228 1.9273,1.88647 z m 62.5663,81.12248 c -0.049,-0.5532 1.2422,0.086 1.607,0.4101 2.1298,1.8905 2.9692,0.4917 2.751,1.8232 -0.1779,1.0856 -1.0149,1.5669 -1.7734,2.0474 -1.6076,1.0186 -1.1898,0.3774 -2.3368,-1.1434 -0.493,-0.6537 0.9465,-1.5249 -0.2409,-3.0985 -0.014,-0.019 -0.01,-0.053 -0.01,-0.039 z m -8.3907,-77.16906 c -1.8007,0.0855 -3.5926,-4.36799 0.73,-2.0021 0.7826,0.42823 1.4791,0.66504 2.3496,0.46948 1.0145,-0.22793 0.7798,0.11193 1.8007,1.02489 1.0396,0.92967 0.2029,2.90131 -0.8948,0.98331 -0.4908,-0.85857 -0.3111,-0.15473 -2.0665,-0.73623 -0.9161,-0.30363 -0.83,-0.098 -1.919,0.26065 z m -64.2785,-16.71862 c -2.0236,-1.23719 -1.3883,-2.09975 -2.6879,-3.39829 -0.5552,-0.5548 0.6014,-1.23339 0.2665,-2.05452 -0.3252,-0.79709 -0.023,-2.9817 0.4183,-3.54471 0.1088,-0.13914 0.2779,0.65889 0.7092,0.77706 0.1184,0.0324 0.1985,0.18574 0.3155,0.24628 0.2422,0.12521 0.2838,0.32471 0.2022,0.54316 -0.9781,2.62462 0.3134,6.39745 0.91,7.21534 0.089,0.12258 0.1275,0.24764 -0.1338,0.21568 z m -31.2572,-101.52077 c -0.4829,1.43046 1.2814,2.68403 -0.069,3.23132 -0.9654,0.39125 -1.2936,1.19445 -1.6118,2.04917 -0.2433,0.65434 -0.7772,0.28819 -0.5846,-0.17871 0.2286,-0.55433 0.435,-1.09153 0.1816,-1.69907 -0.06,-0.14417 -0.015,-0.31617 0.1612,-0.41354 0.9837,-0.54255 0.8275,-1.61254 0.6032,-2.27678 -0.3129,-0.92657 -0.021,-1.87337 -0.395,-2.75208 -0.1195,-0.28068 0.185,-0.56333 0.3869,-0.63523 0.2539,-0.0901 0.097,0.26726 0.205,0.39932 1.0329,1.25728 0.6948,1.74694 1.1227,2.2756 z m 39.2985,115.82544 c 0.045,0.59103 -0.4369,0.87415 -0.395,1.34241 0.011,0.11789 -0.052,0.32076 -0.1338,0.353 -0.5837,0.2316 -0.3088,-1.50948 -1.6925,-2.63465 -1.4217,-1.15592 0.4232,-2.45948 -0.3222,-3.33072 -0.3547,-0.41495 0.015,-0.4065 0.2423,-0.19569 0.3137,0.29077 0.562,0.77705 0.918,0.86941 0.6265,0.16251 0.8838,0.66438 0.9761,1.07867 0.1931,0.86636 -0.062,1.81419 0.4071,2.51757 z m 60.9198,72.16541 c 0.021,-0.057 0.036,-0.097 0.05,-0.1368 1.3076,0.9336 5.0181,2.3414 3.301,3.5449 -1.0551,0.7394 -0.9309,1.6498 -1.2303,0.9704 -0.5844,-1.3259 -1.914,-0.4609 -1.3789,-1.1148 0.7491,-0.9154 -0.3174,-2.9842 -0.7421,-3.2637 z m -14.3846,-58.47529 c -0.039,0.15285 0.263,1.50906 -0.9345,0.29674 -1.8432,-1.86619 0.6518,-3.15323 -0.9197,-4.0187 -0.7746,-0.42663 -1.5653,-2.52536 -0.5592,-1.85911 1.1554,0.76486 2.4305,0.63796 1.9089,1.64952 -0.1059,0.20551 0,0.42316 0.014,0.63627 0.077,0.9934 -0.2834,2.05635 0.484,2.94153 0.053,0.0618 0.01,0.21034 0.01,0.35375 z m -83.3391,-93.14928 c -0.1545,0.82553 -0.5694,1.53872 -0.6531,2.35552 -0.038,0.36905 -2.2107,1.12349 -1.9654,0.44597 0.2372,-0.6557 -0.032,-1.48597 0.6942,-1.97502 0.5396,-0.3637 0.7006,-0.84205 0.3565,-1.43444 -0.095,-0.16388 -0.242,-0.4218 -0.015,-0.47976 1.0589,-0.26998 0.9588,-1.24194 1.3981,-1.46377 0,0.008 -0.2976,1.31735 0.1846,2.5515 z m 35.2396,31.25412 c 1.2752,2.0548 1.0053,1.22256 4.0727,3.38867 0.571,0.40313 -0.01,0.95896 0.1246,1.43397 0.1486,0.53078 -1.0382,0.0258 -1.1946,-0.39017 -0.3172,-0.84463 -1.6964,-1.01156 -1.8978,-2.20905 -0.074,-0.43889 -0.3892,-0.77739 -0.8675,-0.86162 -1.1934,-0.21006 -1.1468,-2.82684 -0.2374,-1.3618 z m -34.9048,-36.57727 c -0.5923,3.76139 -2.209,0.48356 -2.1448,0.32471 0.3379,-0.83671 0.2735,-1.69312 0.3269,-2.55169 0.039,-0.63167 1.3092,-0.72356 1.031,-0.12108 -0.172,0.37257 -0.1591,0.4478 0.7869,2.34806 z m 85.3892,137.63172 c -2.0071,0.087 -1.9221,-0.7483 -2.42,-2.6213 -0.2332,-0.8766 0.4101,-0.5391 0.5489,-0.2897 1.024,1.8388 2.3288,0.199 2.5684,2.6785 0.043,0.4467 -0.4868,0.15 -0.6973,0.2325 z m 0.5351,-38.72665 c -0.6143,-0.75321 -1.3736,-0.23511 -1.7472,-0.87551 -0.1292,-0.22136 -0.7768,-0.22244 -0.4195,-0.56644 0.3636,-0.35009 0.6079,-1.22527 1.2647,-0.87931 0.9254,0.48764 1.6917,1.24424 2.1473,2.2413 0.3631,0.79498 -1.1208,0.233 -1.2453,0.08 z m -9.1133,-14.74448 c 0.1405,-0.39979 0.2424,-0.29814 0.4597,-0.0592 1.1964,1.31566 -0.2706,2.69689 0.584,3.0765 0.9384,0.41673 1.1423,2.76231 0.541,1.814 -0.2943,-0.46427 -0.6363,-0.84965 -1.1805,-1.04854 -0.7728,-0.28251 0.5187,-1.7139 -0.7795,-2.60777 -0.4104,-0.2827 -0.054,0.0472 0.3753,-1.17501 z m 16.5917,48.75383 c -1.435,-0.026 -0.029,-1.123 -0.8271,-2.2594 -0.2004,-0.2854 -0.095,-0.5688 0.2391,-0.5856 0.6776,-0.034 2.1472,1.7379 2.0068,2.4193 -0.2541,1.2336 -0.5147,0.058 -1.4188,0.4257 z m -67.7289,-63.84733 c 0.1114,-0.26834 0.1816,-0.50313 0.3016,-0.70905 0.1544,-0.26511 0.3722,-0.14938 0.3924,0.0587 0.1894,1.94687 2.4471,2.10145 1.9039,2.67413 -0.8732,0.92047 -0.1146,0.87152 -1.7397,0.0983 -1.1399,-0.54227 -0.1217,-1.33368 -0.8582,-2.12205 z m 50.0946,11.06565 c -0.1714,0.35037 -0.2761,0.67846 -0.062,1.06187 0.3567,0.63749 -0.2043,1.23631 -0.1155,1.86849 -0.5203,-0.0296 -1.1977,-0.61642 -1.3261,-1.58246 -0.1758,-1.31716 1.9908,-2.34468 1.5033,-1.3479 z m -39.9085,-8.41785 c 0.4446,0.10564 0.3966,1.65046 -0.1364,2.07057 -0.9386,0.74021 0.5976,0.73824 -0.8496,2.13903 -0.6336,0.61304 -0.1197,-1.08481 -0.3954,-1.59601 -0.8278,-1.53567 1.3814,-0.3822 1.3814,-2.61359 z m 84.0302,121.46653 c 0.7356,-2.1386 0.5889,-2.2691 1.0428,-2.1474 0.4276,0.1145 0.2837,0.5416 0.2152,0.8284 -0.3351,1.4015 -0.071,3.0785 -0.428,3.1311 -0.18,0.026 -0.3886,-0.074 -0.3909,-0.2074 -0.01,-0.5304 -0.4104,-0.9337 -0.4391,-1.6047 z M 2578.8962,857.82506 c -0.9218,0.68611 -0.6777,1.49925 -1.7458,1.85497 -0.8563,0.28515 -0.4922,-0.23375 -0.5035,-0.3866 -0.066,-0.89602 0.7525,-1.31702 1.065,-2.00975 0.1149,-0.25515 0.9975,0.0352 1.1843,0.54138 z m 81.5551,105.0033 c -0.1551,-0.86758 0.1398,-0.32897 0.9416,-0.35314 0.3883,-0.0117 0.7468,0.0741 0.7477,0.52148 0,0.40115 0.3151,0.96003 0.011,1.15525 -0.6746,0.43236 -1.9113,-0.64649 -1.7,-1.32359 z m -83.1542,-74.72761 c -0.136,0.34212 -1.683,-1.26202 -0.232,-1.49606 0.7931,-0.12797 1.5361,-1.21415 1.6631,-1.77599 0.1912,1.92457 -0.943,2.04551 -1.4311,3.27205 z m 85.9427,86.68867 c -0.095,0.26313 -0.036,0.71211 -0.3638,0.73735 -0.6047,0.0465 -1.305,-1.45279 -0.391,-2.12941 0.1445,-0.10705 0.1552,-0.56827 0.5224,-0.27966 0.4009,0.31495 0.7724,0.17754 0.2324,1.67172 z m 17.697,-7.10707 c 0.8737,0 1.0408,0.009 1.2609,-0.0474 1.4658,-0.37806 2.6712,0.75153 2.5188,1.04906 -0.2498,0.48783 -0.3278,0.21738 -3.5097,-0.81422 -0.069,-0.0225 -0.1252,-0.0852 -0.27,-0.18744 z m -47.4391,12.90537 c -0.1844,-0.13177 -0.7044,0.0117 -0.6106,-0.35938 0.1468,-0.58155 0.3667,-1.32439 0.8044,-1.59194 0.358,-0.21887 0.094,0.6924 0.6927,1.29671 0.5023,0.50759 -0.3355,0.55541 -0.8865,0.65461 z m -21.8217,-27.99629 c 0.024,-0.27885 0.5493,-0.37604 0.4148,0.0544 -0.5438,1.7393 1.5005,1.32102 0.8247,2.30203 -0.2317,0.33662 -0.3977,0.0922 -0.5737,-0.0517 -0.9569,-0.78138 -0.7587,-1.24856 -0.6658,-2.3048 z m -23.3366,-113.83654 0.047,-0.13667 c 0.085,0.0552 0.2052,0.0904 0.2508,0.16878 0.7792,1.34088 2.7243,1.25175 1.3039,2.68788 -0.1514,0.15302 -0.2402,0.32501 -0.2252,-0.0884 0.053,-1.47174 -1.2697,-2.18384 -1.3768,-2.63162 z m 95.924,144.98515 c -0.077,0.19 -0.044,0.4868 -0.2995,0.5727 -0.095,0.032 -0.3759,-0.1442 -0.3738,-0.2197 0.017,-0.6002 -1.5878,-1.69173 -0.4748,-1.60491 0.4265,0.0333 1.1363,0.79511 1.1481,1.25191 z M 2578.3229,857.02825 c -1.7814,-0.86346 -0.022,-2.86842 0.1193,-0.98392 0.041,0.54208 0.4249,1.07519 -0.1193,0.98392 z m 81.1928,103.10003 c -0.026,0.15285 -0.1254,1.25846 -0.3677,1.20834 -0.8351,-0.17247 0.4056,-0.98988 -0.1438,-2.27514 -0.065,-0.15289 0.022,-1.69724 0.5115,1.0668 z m 5.8657,15.42829 c -0.8431,-0.56643 -0.4652,-1.36395 -0.049,-1.19674 0.1529,0.0613 1.8067,0.14938 0.049,1.19674 z m -7.0481,-9.96741 c -0.6,-0.0657 -0.7307,-1.61469 -0.1239,-1.57203 0.538,0.038 0.53,1.61652 0.1239,1.57203 z m -77.4136,-90.62988 c -0.3391,0.009 -0.046,-0.40585 -0.1636,-0.60337 -0.1593,-0.26848 -0.2334,-0.97796 -0.047,-1.29793 0.741,0.44546 0.6502,1.88924 0.211,1.9013 z m -0.1474,-54.739 c 0.2342,0.009 -0.1791,-0.49746 0.1738,-0.29628 1.1423,0.65142 0.751,1.59573 0.4859,1.3152 -0.2654,-0.28098 -0.6729,-0.48706 -0.6597,-1.01892 z m 29.1292,132.48289 c -0.2564,0 -0.2425,-0.0926 0.6492,-1.35062 0.1492,-0.21039 0.6121,0.29302 0.5384,0.37346 -0.3574,0.38951 -0.8969,0.55236 -1.1876,0.97716 z m 0.031,0.91301 c 0.2437,0.11329 1.0027,1.46227 0.2616,1.57387 -0.3515,0.0529 -0.3329,-1.06051 -0.2616,-1.57387 z m 56.0507,19.46117 c -0.2004,0.25196 -0.5196,0.29387 -0.7785,0.34596 -0.4547,0.0914 -0.4975,-1.02151 0.01,-0.88988 0.3166,0.0821 0.5995,0.22949 0.7682,0.54392 z m -57.7415,-50.20775 c 0.1655,-0.44315 0.155,-0.674 1.0639,0.57958 0.2754,0.38022 -0.9392,0.0884 -1.0639,-0.57958 z m 58.0457,50.73213 c 0.1083,0.088 0.3619,-0.15805 0.3463,0.13849 -0.051,0.97125 -1.1902,0.46277 -1.1805,0.23498 0.021,-0.48459 0.5476,-0.20682 0.8342,-0.37347 z m 1.1079,0.90762 c -0.027,-0.27271 -0.6318,0.0155 -0.5285,-0.47038 0.051,-0.24126 0.1196,-0.67268 0.3996,-0.59609 0.2681,0.0734 0.7348,1.31294 0.1289,1.06647 z m 23.4926,16.76449 c 0.2773,0.2172 0.369,1.4841 0.2184,1.3563 -0.661,-0.5597 -0.3713,-1.4762 -0.2184,-1.3563 z m -70.441,-28.75155 c 0.1373,-1.38367 0.9483,0.93272 0.462,0.80582 -0.4164,-0.10855 -0.3964,-0.50862 -0.462,-0.80582 z m -40.5505,-86.10318 c -0.1366,1.37146 -0.7461,-0.48295 -0.2605,-0.48905 0.2484,-0.005 0.2259,0.29734 0.2605,0.48905 z m 0.9987,-47.69445 c -0.085,0.0827 0.1125,0.37103 -0.1096,0.34 -0.3358,-0.0469 -0.412,-0.96206 -0.2433,-0.93286 0.2673,0.0463 0.3451,0.29658 0.3529,0.59286 z m 104.1945,140.87738 c -1.3363,-0.4516 0.2273,-0.6785 0.3663,-0.10977 0.029,0.11925 -0.2075,0.0899 -0.3663,0.10977 z m -50.6847,19.8816 c 0.6014,0.097 0.3959,0.6985 0.1457,0.672 -0.2775,-0.029 -0.4683,-0.724 -0.1457,-0.672 z m -56.9343,-134.91975 c -0.7062,1.73179 -0.9573,0.34165 -0.1699,-0.0486 0.049,-0.0244 0.1413,0.0394 0.1699,0.0486 z m 33.7995,98.42044 c -0.1123,0.17232 -0.075,0.47089 -0.3602,0.51918 -0.5559,0.0942 0.2521,-1.33341 0.3602,-0.51918 z m 29.311,64.65917 c -0.1439,0.1853 0.1055,0.5124 -0.2168,0.6577 -0.097,-0.3367 -0.2782,-0.9904 0.079,-1.0193 0.2679,-0.022 0.1259,0.2116 0.1383,0.3616 z m -29.1551,-44.75157 c -0.4989,0.0169 0.058,-1.5803 0.2339,-0.64711 0.048,0.25497 -0.062,0.46549 -0.2339,0.64711 z m -0.3836,-21.94236 c 0,-0.24338 0.4793,-0.43509 0.5915,0.14627 0.094,0.48769 -0.3265,0.28116 -0.5915,-0.14627 z m 60.2456,65.24923 c -0.023,0.1516 0.05,0.3337 -0.1582,0.4074 -0.3389,-1.1868 -0.2719,-0.8846 -0.2285,-1.1564 0.281,0.1736 0.3016,0.4796 0.3867,0.749 z m -60.2318,-45.34013 c -0.2785,0.0589 -0.2966,-0.46901 0.2399,-0.56597 0.1978,-0.0357 0.2482,0.46277 -0.2399,0.56597 z m 53.8569,7.67623 c -0.2442,-0.0911 -0.314,-0.76744 0.1867,-0.71577 0.564,0.058 -0.049,0.56292 -0.1867,0.71577 z m -85.1997,-95.05255 c -0.1594,0.43034 -0.6492,0.43034 -0.5248,0.19001 0.3724,-0.71928 0.5474,-0.44001 0.5248,-0.19001 z m 107.9569,104.16099 c -0.5263,-0.065 -0.6002,-0.6595 -0.3579,-0.521 0.2809,0.1605 0.6646,0.419 0.3579,0.521 z m 2.4352,2.1121 c -0.8673,-0.8087 -0.3794,-0.617 0.1093,-0.1536 0.061,0.057 0.049,0.1347 -0.1093,0.1536 z M 2582.2846,880.50825 c -0.5664,-0.41702 0.08,-1.02761 0.053,-0.18739 0,0.0593 -0.032,0.1177 -0.053,0.18739 z m 28.7791,91.36062 c -0.1144,-0.95778 0.2885,-0.70981 0.2281,-0.473 -0.03,0.11803 -0.1048,0.22488 -0.2281,0.473 z m 55.2939,0.91742 c 0.017,0.0422 -0.023,-0.0566 -0.064,-0.15534 0.796,-0.20484 0.5366,0.22292 0.064,0.15534 z m -54.5494,-1.0645 c -0.2845,-0.18527 -0.1218,-0.87307 0.1068,-0.13023 0.016,0.0526 0.013,0.15609 -0.1068,0.13023 z m 77.7347,43.04701 c 0,-0.023 0,-0.045 0,-0.067 0.4065,-0.069 0.2665,-0.06 0.5242,0.01 -0.4071,0.1067 -0.2693,0.082 -0.5193,0.062 z m -21.3675,-39.44218 c -0.3289,-0.63885 -0.104,-0.53457 0.1213,-0.24671 0.011,0.0145 -0.035,0.0744 -0.1213,0.24671 z m 34.281,92.19068 c -0.079,-0.347 -0.089,-0.2119 0,-0.5142 0.1101,0.2782 0.1017,0.1409 0,0.5142 z m -90.9725,-117.09118 c -0.5221,-0.10888 -0.2087,-0.51768 0.042,-0.12582 0.022,0.0333 -0.04,0.12061 -0.042,0.12582 z m 4.9038,-3.35963 c 0.2423,0.19753 0.1998,0.12108 0.1574,0.27393 -0.2435,-0.19016 -0.1761,-0.14994 -0.1574,-0.27393 z"
         inkscape:connector-curvature="0"
         style="fill:#aa7eff;fill-opacity:1;stroke:#000f6a;stroke-width:0.90708662;stroke-opacity:1;stroke-miterlimit:4;stroke-dasharray:none" />
      <path
         id="path908"
         d="m 1746.9,1050.2 c -3.926,1.04 -8.012,3.033 -10.953,-1.829 0.214,-0.174 0.428,-0.349 0.642,-0.523 2.748,3.793 6.845,1.829 10.343,2.424 z"
         inkscape:connector-curvature="0" />
      <path
         id="path910"
         d="m 1993.9,1201 c 1.811,2.121 0.074,4.708 0.914,6.957 -1.81,-0.045 -1.493,-1.076 -1.51,-6.449 0.198,-0.169 0.397,-0.338 0.596,-0.508 z"
         inkscape:connector-curvature="0" />
      <path
         id="path912"
         d="m 1754.3,1022.5 c 0.415,0.555 1.065,1.057 1.201,1.674 0.414,1.87 2.563,1.092 3.318,2.344 -3.428,0.605 -4.274,-0.796 -4.437,-4.085 10e-4,0 -0.082,0.067 -0.082,0.067 z"
         inkscape:connector-curvature="0" />
      <path
         id="path914"
         d="m 2359.5,1293.7 c 3.443,-0.01 3.144,3.844 3.264,4.844 -1.394,-0.219 -0.891,-1.62 -1.464,-2.351 -0.627,-0.801 -1.25,-1.605 -1.875,-2.407 0,0 0.075,-0.086 0.075,-0.086 z"
         inkscape:connector-curvature="0" />
      <path
         id="path916"
         d="m 1721.3,1188.5 c 0.785,0.01 -0.254,-0.046 4.19,0.234 -0.13,1 -3.258,1.801 -4.2,-0.221 0,-10e-4 0.01,-0.013 0.01,-0.013 z"
         inkscape:connector-curvature="0" />
      <path
         id="path918"
         d="m 1200.9,504.27 c 1.86,-2.73 2.429,-3.495 3.629,-2.951 -2.007,2.798 -1.239,1.847 -3.014,3.499 -0.205,-0.184 -0.41,-0.366 -0.615,-0.548 z"
         inkscape:connector-curvature="0" />
      <path
         id="path920"
         d="m 1783,1009.8 c 0.996,-0.981 3.61,-1.69 4.032,-0.376 -1.362,0.103 -2.724,0.206 -4.087,0.309 -10e-4,0 0.055,0.067 0.055,0.067 z"
         inkscape:connector-curvature="0" />
      <path
         id="path922"
         d="m 1715.9,1160.9 c 2.669,0.031 1.552,-0.027 4.147,0.222 -0.699,1.311 -3.075,0.087 -4.076,-0.297 0,0 -0.071,0.075 -0.071,0.075 z"
         inkscape:connector-curvature="0" />
      <path
         id="path924"
         d="m 1185.9,446.12 c -1.643,0.364 -3.287,0.728 -4.93,1.092 1.249,-2.143 2.946,-2.266 4.93,-1.092 z"
         inkscape:connector-curvature="0" />
      <path
         id="path926"
         d="m 1713.8,1161.9 c 0.861,0.526 1.722,1.051 2.583,1.577 -1.686,0.824 -2.549,0.022 -2.49,-1.661 10e-4,0 -0.093,0.084 -0.093,0.084 z"
         inkscape:connector-curvature="0" />
      <path
         id="path928"
         d="m 1987.1,1097.5 c 1.404,-0.746 5.269,2.474 0.024,0.158 -10e-4,0 -0.024,-0.158 -0.024,-0.158 z"
         inkscape:connector-curvature="0" />
      <path
         id="path930"
         d="m 1848.9,1191.6 c 1.41,1.608 0.845,3.622 1.122,5.462 -1.603,-1.568 -0.914,-3.607 -1.122,-5.462 z"
         inkscape:connector-curvature="0" />
    </g>
    <rect
       style="opacity:1;fill:#003d5c;fill-opacity:1;fill-rule:evenodd;stroke:#ffffff;stroke-width:0.39699998;stroke-linecap:butt;stroke-linejoin:round;stroke-miterlimit:4;stroke-dasharray:none;stroke-dashoffset:0;stroke-opacity:1"
       id="rect48"
       width="23.8125"
       height="100.1637"
       x="3.2127976"
       y="194.0015" />
    <ellipse
       style="opacity:1;fill:#ff0000;fill-opacity:1;fill-rule:evenodd;stroke:#ffffff;stroke-width:0.39699998;stroke-linecap:butt;stroke-linejoin:round;stroke-miterlimit:4;stroke-dasharray:none;stroke-dashoffset:0;stroke-opacity:1"
       id="path878"
       cx="15.119047"
       cy="204.64148"
       rx="9.6383924"
       ry="4.0632439" />
    <ellipse
       ry="4.0632439"
       rx="9.6383924"
       cy="215.22482"
       cx="15.119047"
       id="ellipse880"
       style="opacity:1;fill:#ff0000;fill-opacity:1;fill-rule:evenodd;stroke:#ffffff;stroke-width:0.39699998;stroke-linecap:butt;stroke-linejoin:round;stroke-miterlimit:4;stroke-dasharray:none;stroke-dashoffset:0;stroke-opacity:1" />
    <ellipse
       style="opacity:1;fill:#ff0000;fill-opacity:1;fill-rule:evenodd;stroke:#ffffff;stroke-width:0.39699998;stroke-linecap:butt;stroke-linejoin:round;stroke-miterlimit:4;stroke-dasharray:none;stroke-dashoffset:0;stroke-opacity:1"
       id="ellipse882"
       cx="15.119047"
       cy="225.80817"
       rx="9.6383924"
       ry="4.0632439" />
    <ellipse
       ry="4.0632439"
       rx="9.6383924"
       cy="236.39151"
       cx="15.119047"
       id="ellipse884"
       style="opacity:1;fill:#ff0000;fill-opacity:1;fill-rule:evenodd;stroke:#ffffff;stroke-width:0.39699998;stroke-linecap:butt;stroke-linejoin:round;stroke-miterlimit:4;stroke-dasharray:none;stroke-dashoffset:0;stroke-opacity:1" />
    <ellipse
       style="opacity:1;fill:#ff0000;fill-opacity:1;fill-rule:evenodd;stroke:#ffffff;stroke-width:0.39699998;stroke-linecap:butt;stroke-linejoin:round;stroke-miterlimit:4;stroke-dasharray:none;stroke-dashoffset:0;stroke-opacity:1"
       id="ellipse886"
       cx="15.119047"
       cy="246.97485"
       rx="9.6383924"
       ry="4.0632439" />
    <ellipse
       ry="4.0632439"
       rx="9.6383924"
       cy="257.55823"
       cx="15.119047"
       id="ellipse888"
       style="opacity:1;fill:#ff0000;fill-opacity:1;fill-rule:evenodd;stroke:#ffffff;stroke-width:0.39699998;stroke-linecap:butt;stroke-linejoin:round;stroke-miterlimit:4;stroke-dasharray:none;stroke-dashoffset:0;stroke-opacity:1" />
    <ellipse
       style="opacity:1;fill:#ff0000;fill-opacity:1;fill-rule:evenodd;stroke:#ffffff;stroke-width:0.39699998;stroke-linecap:butt;stroke-linejoin:round;stroke-miterlimit:4;stroke-dasharray:none;stroke-dashoffset:0;stroke-opacity:1"
       id="ellipse890"
       cx="15.119047"
       cy="268.1416"
       rx="9.6383924"
       ry="4.0632439" />
    <ellipse
       ry="4.0632439"
       rx="9.6383924"
       cy="278.72491"
       cx="15.119047"
       id="ellipse892"
       style="opacity:1;fill:#ff0000;fill-opacity:1;fill-rule:evenodd;stroke:#ffffff;stroke-width:0.39699998;stroke-linecap:butt;stroke-linejoin:round;stroke-miterlimit:4;stroke-dasharray:none;stroke-dashoffset:0;stroke-opacity:1" />
    <ellipse
       style="opacity:1;fill:#ff0000;fill-opacity:1;fill-rule:evenodd;stroke:#ffffff;stroke-width:0.39699998;stroke-linecap:butt;stroke-linejoin:round;stroke-miterlimit:4;stroke-dasharray:none;stroke-dashoffset:0;stroke-opacity:1"
       id="ellipse894"
       cx="15.119047"
       cy="289.30823"
       rx="9.6383924"
       ry="4.0632439" />
    <text
       xml:space="preserve"
       style="font-style:normal;font-variant:normal;font-weight:normal;font-stretch:normal;font-size:7.27604151px;line-height:6.61458302px;font-family:Ubuntu;-inkscape-font-specification:Ubuntu;letter-spacing:0px;word-spacing:0px;fill:#000000;fill-opacity:1;stroke:none;stroke-width:0.26458332px;stroke-linecap:butt;stroke-linejoin:miter;stroke-opacity:1"
       x="3.8931546"
       y="198.91519"
       id="text898"><tspan
         sodipodi:role="line"
         id="tspan896"
         x="3.8931546"
         y="198.91519"
         style="font-size:5.29166698px;fill:#ffffff;fill-opacity:1;stroke-width:0.26458332px">Sample A</tspan></text>
    <text
       xml:space="preserve"
       style="font-style:normal;font-variant:normal;font-weight:normal;font-stretch:normal;font-size:7.27604151px;line-height:6.61458302px;font-family:Ubuntu;-inkscape-font-specification:Ubuntu;letter-spacing:0px;word-spacing:0px;fill:#000000;fill-opacity:1;stroke:none;stroke-width:0.26458332px;stroke-linecap:butt;stroke-linejoin:miter;stroke-opacity:1"
       x="28.386007"
       y="248.40134"
       id="text872"><tspan
         sodipodi:role="line"
         id="tspan870"
         x="28.386007"
         y="248.40134"
         style="font-size:12.69999981px;fill:#ffffff;fill-opacity:1;stroke:none;stroke-width:0.26458332px;stroke-opacity:1">Vs.</tspan></text>
    <rect
       y="194.0015"
       x="46.075298"
       height="100.1637"
       width="23.8125"
       id="rect878"
       style="opacity:1;fill:#003d5c;fill-opacity:1;fill-rule:evenodd;stroke:#ffffff;stroke-width:0.39699998;stroke-linecap:butt;stroke-linejoin:round;stroke-miterlimit:4;stroke-dasharray:none;stroke-dashoffset:0;stroke-opacity:1" />
    <ellipse
       ry="4.0632439"
       rx="9.6383924"
       cy="204.64148"
       cx="57.981552"
       id="ellipse881"
       style="opacity:1;fill:#ff0000;fill-opacity:1;fill-rule:evenodd;stroke:#ffffff;stroke-width:0.39699998;stroke-linecap:butt;stroke-linejoin:round;stroke-miterlimit:4;stroke-dasharray:none;stroke-dashoffset:0;stroke-opacity:1" />
    <ellipse
       style="opacity:1;fill:#ff0000;fill-opacity:1;fill-rule:evenodd;stroke:#ffffff;stroke-width:0.39699998;stroke-linecap:butt;stroke-linejoin:round;stroke-miterlimit:4;stroke-dasharray:none;stroke-dashoffset:0;stroke-opacity:1"
       id="ellipse883"
       cx="57.981552"
       cy="215.22482"
       rx="9.6383924"
       ry="4.0632439" />
    <ellipse
       ry="4.0632439"
       rx="9.6383924"
       cy="225.80817"
       cx="57.981552"
       id="ellipse885"
       style="opacity:1;fill:#ff0000;fill-opacity:1;fill-rule:evenodd;stroke:#ffffff;stroke-width:0.39699998;stroke-linecap:butt;stroke-linejoin:round;stroke-miterlimit:4;stroke-dasharray:none;stroke-dashoffset:0;stroke-opacity:1" />
    <ellipse
       style="opacity:1;fill:#ff0000;fill-opacity:1;fill-rule:evenodd;stroke:#ffffff;stroke-width:0.39699998;stroke-linecap:butt;stroke-linejoin:round;stroke-miterlimit:4;stroke-dasharray:none;stroke-dashoffset:0;stroke-opacity:1"
       id="ellipse887"
       cx="57.981552"
       cy="236.39151"
       rx="9.6383924"
       ry="4.0632439" />
    <ellipse
       ry="4.0632439"
       rx="9.6383924"
       cy="246.97485"
       cx="57.981552"
       id="ellipse889"
       style="opacity:1;fill:#ff0000;fill-opacity:1;fill-rule:evenodd;stroke:#ffffff;stroke-width:0.39699998;stroke-linecap:butt;stroke-linejoin:round;stroke-miterlimit:4;stroke-dasharray:none;stroke-dashoffset:0;stroke-opacity:1" />
    <ellipse
       style="opacity:1;fill:#ff0000;fill-opacity:1;fill-rule:evenodd;stroke:#ffffff;stroke-width:0.39699998;stroke-linecap:butt;stroke-linejoin:round;stroke-miterlimit:4;stroke-dasharray:none;stroke-dashoffset:0;stroke-opacity:1"
       id="ellipse891"
       cx="57.981552"
       cy="257.55823"
       rx="9.6383924"
       ry="4.0632439" />
    <ellipse
       ry="4.0632439"
       rx="9.6383924"
       cy="268.1416"
       cx="57.981552"
       id="ellipse893"
       style="opacity:1;fill:#ff0000;fill-opacity:1;fill-rule:evenodd;stroke:#ffffff;stroke-width:0.39699998;stroke-linecap:butt;stroke-linejoin:round;stroke-miterlimit:4;stroke-dasharray:none;stroke-dashoffset:0;stroke-opacity:1" />
    <ellipse
       style="opacity:1;fill:#ff0000;fill-opacity:1;fill-rule:evenodd;stroke:#ffffff;stroke-width:0.39699998;stroke-linecap:butt;stroke-linejoin:round;stroke-miterlimit:4;stroke-dasharray:none;stroke-dashoffset:0;stroke-opacity:1"
       id="ellipse895"
       cx="57.981552"
       cy="278.72491"
       rx="9.6383924"
       ry="4.0632439" />
    <ellipse
       ry="4.0632439"
       rx="9.6383924"
       cy="289.30823"
       cx="57.981552"
       id="ellipse897"
       style="opacity:1;fill:#ff0000;fill-opacity:1;fill-rule:evenodd;stroke:#ffffff;stroke-width:0.39699998;stroke-linecap:butt;stroke-linejoin:round;stroke-miterlimit:4;stroke-dasharray:none;stroke-dashoffset:0;stroke-opacity:1" />
    <text
       id="text901"
       y="198.91519"
       x="46.755657"
       style="font-style:normal;font-variant:normal;font-weight:normal;font-stretch:normal;font-size:7.27604151px;line-height:6.61458302px;font-family:Ubuntu;-inkscape-font-specification:Ubuntu;letter-spacing:0px;word-spacing:0px;fill:#000000;fill-opacity:1;stroke:none;stroke-width:0.26458332px;stroke-linecap:butt;stroke-linejoin:miter;stroke-opacity:1"
       xml:space="preserve"><tspan
         style="font-size:5.29166698px;fill:#ffffff;fill-opacity:1;stroke-width:0.26458332px"
         y="198.91519"
         x="46.755657"
         id="tspan899"
         sodipodi:role="line">Sample B</tspan></text>
  </g>
</svg>
